<?xml version="1.0" encoding="UTF-8" standalone="no"?>
<svg  height="67px" viewBox="0 0 355 159" version="1.1" xmlns="http://www.w3.org/2000/svg" xmlns:xlink="http://www.w3.org/1999/xlink" xmlns:sketch="http://www.bohemiancoding.com/sketch/ns">
    <!-- Generator: Sketch 3.3.3 (12081) - http://www.bohemiancoding.com/sketch -->
    <title>logo-outline</title>
    <desc>Created with Sketch.</desc>
    <defs></defs>
    <g class="logo-outline" stroke="none" stroke-width="1" fill="none" fill-rule="evenodd" sketch:type="MSPage">
        <g id="logo-outline" sketch:type="MSLayerGroup" fill="#0b1f2c">
            <g class="pennuto" sketch:type="MSShapeGroup">
                <path d="M145.3945,62.7065 L154.6145,53.4565 L144.6975,53.4675 L144.3485,52.2955 C137.9095,30.8035 119.9345,23.1775 106.4995,23.1775 C106.0085,23.1775 105.5215,23.1865 105.0325,23.2045 C92.1155,23.7035 75.1765,31.5535 69.9485,52.0385 L69.6365,53.2735 L44.2865,53.2735 L44.2865,39.0605 L45.7635,38.9135 C59.3925,37.5665 75.3595,30.9375 75.5075,16.6885 C75.4375,12.5035 73.8945,8.6985 71.0445,5.6975 C68.9495,3.6745 65.4195,1.2485 60.5865,1.2485 L60.3395,1.2505 C51.7115,1.2505 48.3595,6.0365 45.4845,14.3035 C43.8125,19.0875 41.8265,21.4125 39.4125,21.4125 C36.9505,21.4125 34.9775,19.0105 33.3775,14.0705 C30.6995,5.7785 27.4335,0.9675 18.6665,0.9125 L18.2315,0.9055 C14.4585,0.9055 10.7055,2.4935 7.6705,5.3755 C4.7945,8.2095 3.1515,12.1955 3.1685,16.3045 C3.0415,30.5335 18.9315,37.3375 32.5785,38.8415 L34.0395,39.0015 L34.0395,53.2735 L0.8255,53.2735 L0.8255,66.0645 C1.1235,84.7255 8.6705,102.3715 22.0765,115.7475 C34.0865,127.7295 49.2495,135.0185 65.9265,136.8235 L66.8875,136.9265 L70.7215,149.8025 L58.5095,149.8025 L58.5095,158.3575 L102.5665,158.3575 L102.5665,149.8025 L79.9975,149.8025 L76.2985,137.2455 L78.6025,137.1025 C97.6955,135.8975 115.9985,127.2405 128.8195,113.3495 C139.2135,102.0845 145.2965,88.2925 146.4075,73.4645 L146.5235,71.9465 L154.6145,71.9475 L145.3945,62.7065 Z M26.6925,16.4765 C26.6655,18.6515 25.7675,20.7205 24.2275,22.1535 C22.8205,23.5975 20.7695,24.4335 18.6155,24.4335 C16.4005,24.4335 14.2925,23.5365 12.8335,21.9725 C11.3425,20.3735 10.5395,18.3085 10.5725,16.1565 C10.6055,13.9985 11.4735,12.0165 13.0185,10.5765 C14.4275,9.1325 16.4785,8.2975 18.6325,8.2975 C20.8465,8.2975 22.9545,9.1945 24.4135,10.7585 C25.8845,12.1965 26.7195,14.2855 26.6925,16.4765 L26.6925,16.4765 Z M52.1755,16.5975 C52.1995,14.4195 53.0955,12.3465 54.6355,10.9095 C56.0925,9.4165 58.0595,8.5865 60.1595,8.5865 C62.2665,8.5865 64.2755,9.4485 65.8185,11.0125 C68.7865,14.1995 68.7335,19.3005 65.7115,22.3905 C64.1305,23.8665 62.0365,24.7055 59.9525,24.7055 C57.7655,24.7055 55.8025,23.8405 54.4255,22.2695 C52.9785,20.8645 52.1515,18.7885 52.1755,16.5975 Z M121.2905,106.4005 C109.2445,119.4615 92.0185,126.9785 74.0315,127.0225 L73.8785,127.0225 C57.1145,127.0225 41.2875,120.4435 29.3145,108.4975 C17.5735,96.7845 11.0915,81.3415 11.0615,65.0125 L11.0585,63.3685 L78.6755,63.3575 C79.3195,43.3835 92.5325,33.9385 105.4265,33.4425 C119.3185,32.9035 134.4985,42.3625 136.1825,64.1845 C137.3945,79.6865 132.1055,94.6795 121.2905,106.4005 Z M107.1597,54.7378 C102.4397,54.7378 98.6007,58.6868 98.6007,63.5418 C98.6007,68.3968 102.4397,72.3468 107.1597,72.3468 C112.2347,72.3468 116.2107,68.4798 116.2107,63.5418 C116.2107,58.6048 112.2347,54.7378 107.1597,54.7378 Z" id="Fill-3"></path>
            </g>
            <g class="csirip" transform="translate(177.000000, 39.000000)" sketch:type="MSShapeGroup">
                <path d="M19.7482813,8.40497473 L23.1273463,8.40497473 C22.9376435,7.05334196 22.534531,5.86178883 21.9179967,4.83027961 C21.3014625,3.79877039 20.5308063,2.93919226 19.6060049,2.25151945 C18.6812035,1.56384663 17.6259973,1.04217163 16.4403545,0.686478797 C15.2547117,0.330785962 13.9979492,0.152942212 12.6700293,0.152942212 C10.7255751,0.152942212 9.00049073,0.502701587 7.49472439,1.20223083 C5.98895805,1.90176007 4.73219555,2.8561882 3.72439919,4.06554384 C2.71660282,5.27489948 1.9518747,6.69172135 1.43019187,8.31605197 C0.908509045,9.94038258 0.647671545,11.6773232 0.647671545,13.526926 C0.647671545,15.3765287 0.89072467,17.1075412 1.37683821,18.7200154 C1.86295175,20.3324896 2.59211113,21.7315271 3.56433821,22.9171699 C4.53656529,24.1028126 5.75775904,25.0335283 7.2279561,25.7093447 C8.69815315,26.385161 10.4173094,26.7230642 12.3854764,26.7230642 C15.6341377,26.7230642 18.1950877,25.8338454 20.0684033,24.0553812 C21.9417189,22.2769171 23.0443501,19.7871046 23.3763301,16.585869 L19.997265,16.585869 C19.9261265,17.6292347 19.712714,18.6014472 19.3570211,19.5025357 C19.0013283,20.4036242 18.5092939,21.1802086 17.8809033,21.8323121 C17.2525126,22.4844157 16.5055688,22.9942344 15.6400496,23.3617837 C14.7745304,23.7293329 13.7845335,23.9131048 12.6700293,23.9131048 C11.1524065,23.9131048 9.848219,23.6285548 8.75742764,23.0594463 C7.66663628,22.4903377 6.77148941,21.7256096 6.07196016,20.765239 C5.37243092,19.8048683 4.85668404,18.6785246 4.52470407,17.3861739 C4.19272409,16.0938233 4.02673659,14.7244264 4.02673659,13.2779422 C4.02673659,11.9500223 4.19272409,10.6695473 4.52470407,9.4364788 C4.85668404,8.2034103 5.37243092,7.10670718 6.07196016,6.14633652 C6.77148941,5.18596586 7.66070816,4.42123774 8.73964309,3.8521292 C9.81857802,3.28302067 11.1168374,2.99847067 12.6344602,2.99847067 C14.4129243,2.99847067 15.9483087,3.44900817 17.2406593,4.35009668 C18.53301,5.2511852 19.3688756,6.6027977 19.7482813,8.40497473 L19.7482813,8.40497473 Z M28.4982813,20.3561942 L25.4749073,20.3561942 C25.522333,21.4944113 25.759458,22.4606957 26.1862894,23.2550764 C26.6131208,24.049457 27.1822208,24.6896945 27.8936065,25.1758081 C28.6049922,25.6619216 29.4230734,26.011681 30.3478748,26.2250967 C31.2726762,26.4385124 32.2448887,26.5452186 33.2645415,26.5452186 C34.1893428,26.5452186 35.1200585,26.4562968 36.0567163,26.2784503 C36.9933741,26.1006039 37.8351678,25.7864133 38.5821228,25.335869 C39.3290777,24.8853248 39.9337465,24.2925123 40.3961472,23.5574138 C40.8585478,22.8223152 41.0897447,21.8975277 41.0897447,20.7830235 C41.0897447,19.9056479 40.9178291,19.1705604 40.5739927,18.577739 C40.2301563,17.9849176 39.7796188,17.4928832 39.2223667,17.1016211 C38.6651146,16.710359 38.0248771,16.3961683 37.301635,16.1590398 C36.5783929,15.9219112 35.8373772,15.720355 35.0785659,15.554365 C34.3671802,15.388375 33.6558052,15.2283156 32.9444195,15.074182 C32.2330338,14.9200485 31.5927963,14.7303485 31.0236878,14.5050764 C30.4545793,14.2798042 29.9862574,13.9952542 29.6187081,13.6514178 C29.2511589,13.3075814 29.067387,12.8748283 29.067387,12.3531455 C29.067387,11.8788883 29.1859495,11.4935602 29.423078,11.1971495 C29.6602066,10.9007388 29.9684691,10.6636138 30.3478748,10.4857674 C30.7272805,10.307921 31.1481774,10.1834304 31.610578,10.1122918 C32.0729787,10.0411532 32.5294444,10.0055845 32.9799886,10.0055845 C33.4779586,10.0055845 33.969993,10.0589376 34.4561065,10.1656455 C34.94222,10.2723533 35.3868294,10.4442689 35.789948,10.6813975 C36.1930665,10.9185261 36.5250415,11.2327167 36.7858829,11.6239788 C37.0467243,12.0152409 37.2008556,12.5072753 37.2482813,13.1000967 L40.2716553,13.1000967 C40.2005167,11.9855925 39.9633917,11.0548768 39.5602732,10.3079219 C39.1571546,9.56096693 38.6176952,8.96815443 37.9418789,8.5294666 C37.2660625,8.09077877 36.4894781,7.78251627 35.6121024,7.60466985 C34.7347268,7.42682344 33.7743705,7.33790156 32.7310049,7.33790156 C31.9247678,7.33790156 31.1126147,7.43867969 30.2945211,7.64023896 C29.4764276,7.84179823 28.7413401,8.15006073 28.0892366,8.56503571 C27.4371331,8.98001068 26.9036018,9.51947006 26.4886268,10.18343 C26.0736519,10.84739 25.8661675,11.6417587 25.8661675,12.5665601 C25.8661675,13.7522029 26.1625737,14.6769904 26.7553951,15.3409503 C27.3482165,16.0049103 28.0892321,16.5206572 28.9784642,16.8882064 C29.8676963,17.2557557 30.8339807,17.5403057 31.8773463,17.741865 C32.920712,17.9434242 33.8869964,18.168693 34.7762285,18.417678 C35.6654605,18.666663 36.4064762,18.9927098 36.9992976,19.3958284 C37.592119,19.7989469 37.8885252,20.3917594 37.8885252,21.1742837 C37.8885252,21.7433922 37.7462502,22.2117141 37.4616959,22.5792633 C37.1771417,22.9468126 36.815526,23.2254345 36.3768382,23.4151373 C35.9381504,23.6048402 35.4579723,23.7352589 34.9362894,23.8063975 C34.4146066,23.8775361 33.9166441,23.9131048 33.442387,23.9131048 C32.8258527,23.9131048 32.2271121,23.8538236 31.6461472,23.7352593 C31.0651822,23.616695 30.5435072,23.4210669 30.0811065,23.148369 C29.6187058,22.8756712 29.2452339,22.5081275 28.9606797,22.0457268 C28.6761254,21.5833261 28.5219942,21.0201542 28.4982813,20.3561942 L28.4982813,20.3561942 Z M47.2076309,4.456804 L47.2076309,0.757617008 L44.1842569,0.757617008 L44.1842569,4.456804 L47.2076309,4.456804 Z M44.1842569,7.76473083 L44.1842569,26.1539585 L47.2076309,26.1539585 L47.2076309,7.76473083 L44.1842569,7.76473083 Z M51.3692163,7.76473083 L51.3692163,26.1539585 L54.3925902,26.1539585 L54.3925902,17.9730642 C54.3925902,16.7874214 54.5111527,15.7381433 54.7482813,14.8251983 C54.9854099,13.9122534 55.3648099,13.135669 55.8864927,12.4954219 C56.4081755,11.8551748 57.095838,11.3690685 57.9495008,11.0370886 C58.8031636,10.7051086 59.8346574,10.5391211 61.044013,10.5391211 L61.044013,7.33790156 C59.407826,7.29047585 58.0562135,7.62245085 56.989135,8.33383652 C55.9220565,9.04522219 55.0209815,10.1478534 54.2858829,11.6417633 L54.2147447,11.6417633 L54.2147447,7.76473083 L51.3692163,7.76473083 Z M66.094826,4.456804 L66.094826,0.757617008 L63.071452,0.757617008 L63.071452,4.456804 L66.094826,4.456804 Z M63.071452,7.76473083 L63.071452,26.1539585 L66.094826,26.1539585 L66.094826,7.76473083 L63.071452,7.76473083 Z M70.469826,7.76473083 L70.469826,33.1610723 L73.4932,33.1610723 L73.4932,23.6996902 L73.5643382,23.6996902 C73.8963182,24.2450859 74.3053588,24.7015515 74.7914724,25.0691007 C75.2775859,25.43665 75.7933328,25.7271281 76.3387285,25.9405438 C76.8841241,26.1539595 77.4354398,26.3080908 77.9926919,26.4029422 C78.549944,26.4977936 79.0538346,26.5452186 79.5043789,26.5452186 C80.9034373,26.5452186 82.1305592,26.2962374 83.1857813,25.7982674 C84.2410034,25.3002974 85.1183659,24.6185631 85.8178951,23.7530438 C86.5174244,22.8875246 87.0390994,21.8738152 87.3829358,20.7118853 C87.7267722,19.5499554 87.8986878,18.3169054 87.8986878,17.0126983 C87.8986878,15.7084912 87.7208441,14.4754412 87.3651512,13.3135113 C87.0094584,12.1515814 86.4818553,11.1260158 85.782326,10.2367837 C85.0827968,9.34755159 84.2054343,8.64210471 83.1502122,8.12042189 C82.0949901,7.59873906 80.856012,7.33790156 79.4332407,7.33790156 C78.1527464,7.33790156 76.9789777,7.56909844 75.9118992,8.03149912 C74.8448207,8.49389981 74.0623082,9.23491543 73.5643382,10.2545682 L73.4932,10.2545682 L73.4932,7.76473083 L70.469826,7.76473083 Z M84.6974683,16.7992837 C84.6974683,17.7003722 84.6026183,18.5777347 84.4129154,19.4313975 C84.2232126,20.2850603 83.9149501,21.0438603 83.4881187,21.7078203 C83.0612873,22.3717802 82.4981154,22.9053115 81.7985862,23.30843 C81.0990569,23.7115486 80.2276226,23.9131048 79.1842569,23.9131048 C78.1408913,23.9131048 77.2516725,23.7174767 76.516574,23.3262146 C75.7814755,22.9349525 75.1827348,22.4192056 74.7203341,21.7789585 C74.2579335,21.1387114 73.9200303,20.3976957 73.7066146,19.5558894 C73.4931989,18.714083 73.3864927,17.8426486 73.3864927,16.9415601 C73.3864927,16.0878973 73.4872708,15.2461035 73.6888301,14.4161536 C73.8903894,13.5862036 74.2164362,12.845188 74.6669805,12.1930845 C75.1175247,11.540981 75.698481,11.0133778 76.4098667,10.6102593 C77.1212523,10.2071407 77.9867586,10.0055845 79.0064114,10.0055845 C79.9786385,10.0055845 80.8263603,10.1952845 81.5496024,10.5746902 C82.2728445,10.9540959 82.865657,11.4639146 83.3280577,12.1041617 C83.7904584,12.7444088 84.1342897,13.4735682 84.3595618,14.2916617 C84.5848339,15.1097552 84.6974683,15.9456209 84.6974683,16.7992837 L84.6974683,16.7992837 Z"></path>
            </g>
            <g class="cvrkut" transform="translate(177.000000, 39.000000)" sketch:type="MSShapeGroup">
                <path d="M19.7482813,8.40497473 L23.1273463,8.40497473 C22.9376435,7.05334196 22.534531,5.86178883 21.9179967,4.83027961 C21.3014625,3.79877039 20.5308063,2.93919226 19.6060049,2.25151945 C18.6812035,1.56384663 17.6259973,1.04217163 16.4403545,0.686478797 C15.2547117,0.330785962 13.9979492,0.152942212 12.6700293,0.152942212 C10.7255751,0.152942212 9.00049073,0.502701587 7.49472439,1.20223083 C5.98895805,1.90176007 4.73219555,2.8561882 3.72439919,4.06554384 C2.71660282,5.27489948 1.9518747,6.69172135 1.43019187,8.31605197 C0.908509045,9.94038258 0.647671545,11.6773232 0.647671545,13.526926 C0.647671545,15.3765287 0.89072467,17.1075412 1.37683821,18.7200154 C1.86295175,20.3324896 2.59211113,21.7315271 3.56433821,22.9171699 C4.53656529,24.1028126 5.75775904,25.0335283 7.2279561,25.7093447 C8.69815315,26.385161 10.4173094,26.7230642 12.3854764,26.7230642 C15.6341377,26.7230642 18.1950877,25.8338454 20.0684033,24.0553812 C21.9417189,22.2769171 23.0443501,19.7871046 23.3763301,16.585869 L19.997265,16.585869 C19.9261265,17.6292347 19.712714,18.6014472 19.3570211,19.5025357 C19.0013283,20.4036242 18.5092939,21.1802086 17.8809033,21.8323121 C17.2525126,22.4844157 16.5055688,22.9942344 15.6400496,23.3617837 C14.7745304,23.7293329 13.7845335,23.9131048 12.6700293,23.9131048 C11.1524065,23.9131048 9.848219,23.6285548 8.75742764,23.0594463 C7.66663628,22.4903377 6.77148941,21.7256096 6.07196016,20.765239 C5.37243092,19.8048683 4.85668404,18.6785246 4.52470407,17.3861739 C4.19272409,16.0938233 4.02673659,14.7244264 4.02673659,13.2779422 C4.02673659,11.9500223 4.19272409,10.6695473 4.52470407,9.4364788 C4.85668404,8.2034103 5.37243092,7.10670718 6.07196016,6.14633652 C6.77148941,5.18596586 7.66070816,4.42123774 8.73964309,3.8521292 C9.81857802,3.28302067 11.1168374,2.99847067 12.6344602,2.99847067 C14.4129243,2.99847067 15.9483087,3.44900817 17.2406593,4.35009668 C18.53301,5.2511852 19.3688756,6.6027977 19.7482813,8.40497473 L19.7482813,8.40497473 Z M34.9362894,26.1539585 L41.6588504,7.76473083 L38.4932,7.76473083 L33.4779561,23.0950154 L33.4068179,23.0950154 L28.2492976,7.76473083 L24.8702325,7.76473083 L31.6995008,26.1539585 L34.9362894,26.1539585 Z M43.8997041,7.76473083 L43.8997041,26.1539585 L46.923078,26.1539585 L46.923078,17.9730642 C46.923078,16.7874214 47.0416405,15.7381433 47.2787691,14.8251983 C47.5158977,13.9122534 47.8952977,13.135669 48.4169805,12.4954219 C48.9386633,11.8551748 49.6263258,11.3690685 50.4799886,11.0370886 C51.3336514,10.7051086 52.3651452,10.5391211 53.5745008,10.5391211 L53.5745008,7.33790156 C51.9383138,7.29047585 50.5867013,7.62245085 49.5196228,8.33383652 C48.4525443,9.04522219 47.5514693,10.1478534 46.8163707,11.6417633 L46.7452325,11.6417633 L46.7452325,7.76473083 L43.8997041,7.76473083 Z M55.6019398,0.757617008 L55.6019398,26.1539585 L58.6253138,26.1539585 L58.6253138,19.1824138 L61.4708423,16.5502999 L67.766574,26.1539585 L71.6080374,26.1539585 L63.7828341,14.4517227 L71.0745008,7.76473083 L67.0196228,7.76473083 L58.6253138,15.8033487 L58.6253138,0.757617008 L55.6019398,0.757617008 Z M88.6812081,26.1539585 L88.6812081,7.76473083 L85.6578341,7.76473083 L85.6578341,18.1509097 C85.6578341,18.9808596 85.5451998,19.7455878 85.3199276,20.445117 C85.0946555,21.1446463 84.7567524,21.7552431 84.3062081,22.276926 C83.8556639,22.7986088 83.292492,23.2017213 82.6166756,23.4862755 C81.9408592,23.7708298 81.1405623,23.9131048 80.215761,23.9131048 C79.053831,23.9131048 78.1408998,23.5811298 77.4769398,22.9171699 C76.8129799,22.2532099 76.4810049,21.3521349 76.4810049,20.2139178 L76.4810049,7.76473083 L73.4576309,7.76473083 L73.4576309,19.8582268 C73.4576309,20.8541667 73.558409,21.7611698 73.7599683,22.5792633 C73.9615276,23.3973569 74.3112869,24.1028037 74.8092569,24.6956251 C75.3072269,25.2884465 75.9593206,25.7449122 76.7655577,26.0650357 C77.5717948,26.3851593 78.5795761,26.5452186 79.7889317,26.5452186 C81.1405645,26.5452186 82.3143332,26.278453 83.3102732,25.7449138 C84.3062131,25.2113745 85.1242944,24.3755089 85.7645415,23.2372918 L85.8356797,23.2372918 L85.8356797,26.1539585 L88.6812081,26.1539585 Z M97.0043789,7.76473083 L97.0043789,2.25151945 L93.9810049,2.25151945 L93.9810049,7.76473083 L90.8509236,7.76473083 L90.8509236,10.4324138 L93.9810049,10.4324138 L93.9810049,22.1346495 C93.9810049,22.9883123 94.0639986,23.6759748 94.2299886,24.1976577 C94.3959786,24.7193405 94.650888,25.122453 94.9947244,25.4070073 C95.3385608,25.6915615 95.7890983,25.8871896 96.3463504,25.9938975 C96.9036025,26.1006053 97.5734806,26.1539585 98.3560049,26.1539585 L100.667997,26.1539585 L100.667997,23.4862755 L99.2808016,23.4862755 C98.8065445,23.4862755 98.4212164,23.4684912 98.1248057,23.4329219 C97.828395,23.3973526 97.5971981,23.320287 97.4312081,23.2017227 C97.2652181,23.0831584 97.1525838,22.9171709 97.0933016,22.7037552 C97.0340195,22.4903395 97.0043789,22.2057895 97.0043789,21.8500967 L97.0043789,10.4324138 L100.667997,10.4324138 L100.667997,7.76473083 L97.0043789,7.76473083 Z"></path>
            </g>
            <g class="tschiwitt" transform="translate(176.000000, 39.000000)" sketch:type="MSShapeGroup">
                <path d="M8.65478537,3.60314546 L8.65478537,26.1539585 L12.0338504,26.1539585 L12.0338504,3.60314546 L20.4992976,3.60314546 L20.4992976,0.757617008 L0.189338211,0.757617008 L0.189338211,3.60314546 L8.65478537,3.60314546 Z M20.2858829,20.3561942 L17.2625089,20.3561942 C17.3099347,21.4944113 17.5470597,22.4606957 17.9738911,23.2550764 C18.4007225,24.049457 18.9698225,24.6896945 19.6812081,25.1758081 C20.3925938,25.6619216 21.2106751,26.011681 22.1354764,26.2250967 C23.0602778,26.4385124 24.0324903,26.5452186 25.0521431,26.5452186 C25.9769445,26.5452186 26.9076601,26.4562968 27.8443179,26.2784503 C28.7809757,26.1006039 29.6227694,25.7864133 30.3697244,25.335869 C31.1166793,24.8853248 31.7213481,24.2925123 32.1837488,23.5574138 C32.6461495,22.8223152 32.8773463,21.8975277 32.8773463,20.7830235 C32.8773463,19.9056479 32.7054307,19.1705604 32.3615943,18.577739 C32.0177579,17.9849176 31.5672204,17.4928832 31.0099683,17.1016211 C30.4527162,16.710359 29.8124787,16.3961683 29.0892366,16.1590398 C28.3659945,15.9219112 27.6249789,15.720355 26.8661675,15.554365 C26.1547818,15.388375 25.4434068,15.2283156 24.7320211,15.074182 C24.0206355,14.9200485 23.380398,14.7303485 22.8112894,14.5050764 C22.2421809,14.2798042 21.773859,13.9952542 21.4063098,13.6514178 C21.0387605,13.3075814 20.8549886,12.8748283 20.8549886,12.3531455 C20.8549886,11.8788883 20.9735511,11.4935602 21.2106797,11.1971495 C21.4478082,10.9007388 21.7560707,10.6636138 22.1354764,10.4857674 C22.5148821,10.307921 22.935779,10.1834304 23.3981797,10.1122918 C23.8605804,10.0411532 24.317046,10.0055845 24.7675902,10.0055845 C25.2655602,10.0055845 25.7575946,10.0589376 26.2437081,10.1656455 C26.7298217,10.2723533 27.174431,10.4442689 27.5775496,10.6813975 C27.9806681,10.9185261 28.3126431,11.2327167 28.5734846,11.6239788 C28.834326,12.0152409 28.9884572,12.5072753 29.0358829,13.1000967 L32.0592569,13.1000967 C31.9881183,11.9855925 31.7509933,11.0548768 31.3478748,10.3079219 C30.9447563,9.56096693 30.4052969,8.96815443 29.7294805,8.5294666 C29.0536641,8.09077877 28.2770797,7.78251627 27.3997041,7.60466985 C26.5223284,7.42682344 25.5619722,7.33790156 24.5186065,7.33790156 C23.7123694,7.33790156 22.9002163,7.43867969 22.0821228,7.64023896 C21.2640292,7.84179823 20.5289417,8.15006073 19.8768382,8.56503571 C19.2247347,8.98001068 18.6912034,9.51947006 18.2762285,10.18343 C17.8612535,10.84739 17.6537691,11.6417587 17.6537691,12.5665601 C17.6537691,13.7522029 17.9501754,14.6769904 18.5429967,15.3409503 C19.1358181,16.0049103 19.8768338,16.5206572 20.7660659,16.8882064 C21.6552979,17.2557557 22.6215823,17.5403057 23.664948,17.741865 C24.7083136,17.9434242 25.674598,18.168693 26.5638301,18.417678 C27.4530622,18.666663 28.1940778,18.9927098 28.7868992,19.3958284 C29.3797206,19.7989469 29.6761268,20.3917594 29.6761268,21.1742837 C29.6761268,21.7433922 29.5338518,22.2117141 29.2492976,22.5792633 C28.9647433,22.9468126 28.6031277,23.2254345 28.1644398,23.4151373 C27.725752,23.6048402 27.2455739,23.7352589 26.7238911,23.8063975 C26.2022082,23.8775361 25.7042457,23.9131048 25.2299886,23.9131048 C24.6134544,23.9131048 24.0147137,23.8538236 23.4337488,23.7352593 C22.8527838,23.616695 22.3311088,23.4210669 21.8687081,23.148369 C21.4063074,22.8756712 21.0328356,22.5081275 20.7482813,22.0457268 C20.463727,21.5833261 20.3095958,21.0201542 20.2858829,20.3561942 L20.2858829,20.3561942 Z M48.2787691,13.6692024 L51.4088504,13.6692024 C51.2902861,12.578411 51.0057361,11.6358391 50.5551919,10.8414585 C50.1046476,10.0470778 49.5296195,9.38905593 48.8300902,8.86737311 C48.130561,8.34569028 47.324336,7.96036216 46.4113911,7.71137717 C45.4984461,7.46239219 44.5203055,7.33790156 43.4769398,7.33790156 C42.0304556,7.33790156 40.7618369,7.59281094 39.6710455,8.10263733 C38.5802542,8.61246373 37.673251,9.31198248 36.9500089,10.2012146 C36.2267668,11.0904467 35.6873075,12.1337967 35.3316146,13.3312959 C34.9759218,14.5287951 34.798078,15.8151982 34.798078,17.1905438 C34.798078,18.5658895 34.9818499,19.8285801 35.3493992,20.9786536 C35.7169485,22.1287271 36.262336,23.118724 36.985578,23.9486739 C37.7088201,24.7786239 38.6098951,25.4188614 39.6888301,25.8694056 C40.767765,26.3199499 42.0067431,26.5452186 43.4058016,26.5452186 C45.7533743,26.5452186 47.6088775,25.9286936 48.9723667,24.6956251 C50.3358559,23.4625566 51.1835777,21.7078316 51.5155577,19.4313975 L48.4210455,19.4313975 C48.2313427,20.8541688 47.7155958,21.9568001 46.8737894,22.7393243 C46.0319831,23.5218486 44.8641424,23.9131048 43.3702325,23.9131048 C42.4217183,23.9131048 41.603637,23.7234048 40.9159642,23.3439991 C40.2282914,22.9645934 39.6710477,22.4607028 39.2442163,21.8323121 C38.8173849,21.2039215 38.5031942,20.4866183 38.301635,19.6803812 C38.1000757,18.8741441 37.9992976,18.0442066 37.9992976,17.1905438 C37.9992976,16.2657425 38.0941476,15.3705956 38.2838504,14.5050764 C38.4735533,13.6395571 38.7877439,12.874829 39.2264317,12.210869 C39.6651195,11.5469091 40.2520039,11.0133778 40.9871024,10.6102593 C41.722201,10.2071407 42.6351322,10.0055845 43.7259236,10.0055845 C45.0064178,10.0055845 46.0260553,10.3257032 46.7848667,10.9659503 C47.543678,11.6061974 48.0416405,12.5072724 48.2787691,13.6692024 L48.2787691,13.6692024 Z M54.4677935,0.757617008 L54.4677935,26.1539585 L57.4911675,26.1539585 L57.4911675,15.7677796 C57.4911675,14.9378297 57.6038019,14.1731015 57.829074,13.4735723 C58.0543461,12.774043 58.3922492,12.1634462 58.8427935,11.6417633 C59.2933378,11.1200805 59.8565096,10.716968 60.532326,10.4324138 C61.2081424,10.1478595 62.0084393,10.0055845 62.9332407,10.0055845 C64.0951706,10.0055845 65.0081018,10.3375595 65.6720618,11.0015194 C66.3360217,11.6654794 66.6679967,12.5665544 66.6679967,13.7047715 L66.6679967,26.1539585 L69.6913707,26.1539585 L69.6913707,14.0604625 C69.6913707,13.0645226 69.5905926,12.1575195 69.3890333,11.339426 C69.1874741,10.5213324 68.8377147,9.81588556 68.3397447,9.22306416 C67.8417747,8.63024277 67.189681,8.16784902 66.3834439,7.83586904 C65.5772068,7.50388906 64.5694256,7.33790156 63.3600699,7.33790156 C62.8146742,7.33790156 62.2515024,7.39718281 61.6705374,7.51574709 C61.0895724,7.63431137 60.5323287,7.81808324 59.9987894,8.06706823 C59.4652502,8.31605321 58.9850721,8.63617196 58.5582407,9.02743408 C58.1314092,9.4186962 57.7994342,9.89887433 57.5623057,10.4679829 L57.4911675,10.4679829 L57.4911675,0.757617008 L54.4677935,0.757617008 Z M77.0186065,4.456804 L77.0186065,0.757617008 L73.9952325,0.757617008 L73.9952325,4.456804 L77.0186065,4.456804 Z M73.9952325,7.76473083 L73.9952325,26.1539585 L77.0186065,26.1539585 L77.0186065,7.76473083 L73.9952325,7.76473083 Z M99.4982813,26.1539585 L105.367184,7.76473083 L102.237102,7.76473083 L98.1110862,22.8104625 L98.039948,22.8104625 L94.1984846,7.76473083 L90.8905577,7.76473083 L87.1913707,22.8104625 L87.1202325,22.8104625 L82.9586472,7.76473083 L79.6151512,7.76473083 L85.5196228,26.1539585 L88.7919805,26.1539585 L92.4911675,11.535056 L92.5623057,11.535056 L96.2970618,26.1539585 L99.4982813,26.1539585 Z M111.022672,4.456804 L111.022672,0.757617008 L107.999298,0.757617008 L107.999298,4.456804 L111.022672,4.456804 Z M107.999298,7.76473083 L107.999298,26.1539585 L111.022672,26.1539585 L111.022672,7.76473083 L107.999298,7.76473083 Z M119.488119,7.76473083 L119.488119,2.25151945 L116.464745,2.25151945 L116.464745,7.76473083 L113.334663,7.76473083 L113.334663,10.4324138 L116.464745,10.4324138 L116.464745,22.1346495 C116.464745,22.9883123 116.547738,23.6759748 116.713728,24.1976577 C116.879718,24.7193405 117.134628,25.122453 117.478464,25.4070073 C117.822301,25.6915615 118.272838,25.8871896 118.83009,25.9938975 C119.387342,26.1006053 120.05722,26.1539585 120.839745,26.1539585 L123.151737,26.1539585 L123.151737,23.4862755 L121.764541,23.4862755 C121.290284,23.4862755 120.904956,23.4684912 120.608546,23.4329219 C120.312135,23.3973526 120.080938,23.320287 119.914948,23.2017227 C119.748958,23.0831584 119.636324,22.9171709 119.577041,22.7037552 C119.517759,22.4903395 119.488119,22.2057895 119.488119,21.8500967 L119.488119,10.4324138 L123.151737,10.4324138 L123.151737,7.76473083 L119.488119,7.76473083 Z M130.265558,7.76473083 L130.265558,2.25151945 L127.242184,2.25151945 L127.242184,7.76473083 L124.112102,7.76473083 L124.112102,10.4324138 L127.242184,10.4324138 L127.242184,22.1346495 C127.242184,22.9883123 127.325177,23.6759748 127.491167,24.1976577 C127.657157,24.7193405 127.912067,25.122453 128.255903,25.4070073 C128.59974,25.6915615 129.050277,25.8871896 129.607529,25.9938975 C130.164781,26.1006053 130.83466,26.1539585 131.617184,26.1539585 L133.929176,26.1539585 L133.929176,23.4862755 L132.54198,23.4862755 C132.067723,23.4862755 131.682395,23.4684912 131.385985,23.4329219 C131.089574,23.3973526 130.858377,23.320287 130.692387,23.2017227 C130.526397,23.0831584 130.413763,22.9171709 130.35448,22.7037552 C130.295198,22.4903395 130.265558,22.2057895 130.265558,21.8500967 L130.265558,10.4324138 L133.929176,10.4324138 L133.929176,7.76473083 L130.265558,7.76473083 Z"></path>
            </g>
            <g class="fiyt-fiyt" transform="translate(178.000000, 39.000000)" sketch:type="MSShapeGroup">
                <path d="M0.892590244,0.757617008 L0.892590244,26.1539585 L4.27165528,26.1539585 L4.27165528,14.5228609 L15.938322,14.5228609 L15.938322,11.6773325 L4.27165528,11.6773325 L4.27165528,3.60314546 L17.5745008,3.60314546 L17.5745008,0.757617008 L0.892590244,0.757617008 Z M23.5856797,4.456804 L23.5856797,0.757617008 L20.5623057,0.757617008 L20.5623057,4.456804 L23.5856797,4.456804 Z M20.5623057,7.76473083 L20.5623057,26.1539585 L23.5856797,26.1539585 L23.5856797,7.76473083 L20.5623057,7.76473083 Z M35.0745008,28.6082268 C34.718808,29.5093153 34.3690486,30.2681153 34.0252122,30.8846495 C33.6813758,31.5011838 33.3019758,32.0050744 32.8870008,32.3963365 C32.4720258,32.7875986 32.0096321,33.0721486 31.4998057,33.2499951 C30.9899793,33.4278415 30.4030949,33.5167633 29.739135,33.5167633 C29.3834421,33.5167633 29.0277546,33.4930508 28.6720618,33.4456251 C28.316369,33.3981994 27.9725377,33.3152057 27.6405577,33.1966414 L27.6405577,30.4222512 C27.9013991,30.5408154 28.2037335,30.6415936 28.5475699,30.7245886 C28.8914063,30.8075835 29.1818845,30.8490804 29.419013,30.8490804 C30.0355473,30.8490804 30.5512941,30.7008773 30.9662691,30.4044666 C31.3812441,30.1080559 31.6954347,29.687159 31.9088504,29.1417633 L33.1537691,26.0472512 L25.8621024,7.76473083 L29.2767366,7.76473083 L34.6476715,22.8104625 L34.7188098,22.8104625 L39.8763301,7.76473083 L43.0775496,7.76473083 L35.0745008,28.6082268 Z M49.4088504,7.76473083 L49.4088504,2.25151945 L46.3854764,2.25151945 L46.3854764,7.76473083 L43.2553951,7.76473083 L43.2553951,10.4324138 L46.3854764,10.4324138 L46.3854764,22.1346495 C46.3854764,22.9883123 46.4684702,23.6759748 46.6344602,24.1976577 C46.8004502,24.7193405 47.0553595,25.122453 47.3991959,25.4070073 C47.7430323,25.6915615 48.1935698,25.8871896 48.750822,25.9938975 C49.3080741,26.1006053 49.9779522,26.1539585 50.7604764,26.1539585 L53.0724683,26.1539585 L53.0724683,23.4862755 L51.6852732,23.4862755 C51.2110161,23.4862755 50.8256879,23.4684912 50.5292772,23.4329219 C50.2328665,23.3973526 50.0016697,23.320287 49.8356797,23.2017227 C49.6696897,23.0831584 49.5570553,22.9171709 49.4977732,22.7037552 C49.438491,22.4903395 49.4088504,22.2057895 49.4088504,21.8500967 L49.4088504,10.4324138 L53.0724683,10.4324138 L53.0724683,7.76473083 L49.4088504,7.76473083 Z M55.4911675,14.8429829 L55.4911675,17.6885113 L65.770639,17.6885113 L65.770639,14.8429829 L55.4911675,14.8429829 Z M69.8966553,0.757617008 L69.8966553,26.1539585 L73.2757203,26.1539585 L73.2757203,14.5228609 L84.942387,14.5228609 L84.942387,11.6773325 L73.2757203,11.6773325 L73.2757203,3.60314546 L86.5785659,3.60314546 L86.5785659,0.757617008 L69.8966553,0.757617008 Z M92.5897447,4.456804 L92.5897447,0.757617008 L89.5663707,0.757617008 L89.5663707,4.456804 L92.5897447,4.456804 Z M89.5663707,7.76473083 L89.5663707,26.1539585 L92.5897447,26.1539585 L92.5897447,7.76473083 L89.5663707,7.76473083 Z M104.078566,28.6082268 C103.722873,29.5093153 103.373114,30.2681153 103.029277,30.8846495 C102.685441,31.5011838 102.306041,32.0050744 101.891066,32.3963365 C101.476091,32.7875986 101.013697,33.0721486 100.503871,33.2499951 C99.9940443,33.4278415 99.40716,33.5167633 98.7432,33.5167633 C98.3875072,33.5167633 98.0318197,33.4930508 97.6761268,33.4456251 C97.320434,33.3981994 96.9766027,33.3152057 96.6446228,33.1966414 L96.6446228,30.4222512 C96.9054642,30.5408154 97.2077986,30.6415936 97.551635,30.7245886 C97.8954714,30.8075835 98.1859495,30.8490804 98.423078,30.8490804 C99.0396123,30.8490804 99.5553592,30.7008773 99.9703341,30.4044666 C100.385309,30.1080559 100.6995,29.687159 100.912915,29.1417633 L102.157834,26.0472512 L94.8661675,7.76473083 L98.2808016,7.76473083 L103.651737,22.8104625 L103.722875,22.8104625 L108.880395,7.76473083 L112.081615,7.76473083 L104.078566,28.6082268 Z M118.412915,7.76473083 L118.412915,2.25151945 L115.389541,2.25151945 L115.389541,7.76473083 L112.25946,7.76473083 L112.25946,10.4324138 L115.389541,10.4324138 L115.389541,22.1346495 C115.389541,22.9883123 115.472535,23.6759748 115.638525,24.1976577 C115.804515,24.7193405 116.059425,25.122453 116.403261,25.4070073 C116.747097,25.6915615 117.197635,25.8871896 117.754887,25.9938975 C118.312139,26.1006053 118.982017,26.1539585 119.764541,26.1539585 L122.076533,26.1539585 L122.076533,23.4862755 L120.689338,23.4862755 C120.215081,23.4862755 119.829753,23.4684912 119.533342,23.4329219 C119.236932,23.3973526 119.005735,23.320287 118.839745,23.2017227 C118.673755,23.0831584 118.56112,22.9171709 118.501838,22.7037552 C118.442556,22.4903395 118.412915,22.2057895 118.412915,21.8500967 L118.412915,10.4324138 L122.076533,10.4324138 L122.076533,7.76473083 L118.412915,7.76473083 Z"></path>
            </g>
            <g class="tsiou-tsiou" transform="translate(176.000000, 39.000000)" sketch:type="MSShapeGroup">
                <path d="M8.65478537,3.60314546 L8.65478537,26.1539585 L12.0338504,26.1539585 L12.0338504,3.60314546 L20.4992976,3.60314546 L20.4992976,0.757617008 L0.189338211,0.757617008 L0.189338211,3.60314546 L8.65478537,3.60314546 Z M20.2858829,20.3561942 L17.2625089,20.3561942 C17.3099347,21.4944113 17.5470597,22.4606957 17.9738911,23.2550764 C18.4007225,24.049457 18.9698225,24.6896945 19.6812081,25.1758081 C20.3925938,25.6619216 21.2106751,26.011681 22.1354764,26.2250967 C23.0602778,26.4385124 24.0324903,26.5452186 25.0521431,26.5452186 C25.9769445,26.5452186 26.9076601,26.4562968 27.8443179,26.2784503 C28.7809757,26.1006039 29.6227694,25.7864133 30.3697244,25.335869 C31.1166793,24.8853248 31.7213481,24.2925123 32.1837488,23.5574138 C32.6461495,22.8223152 32.8773463,21.8975277 32.8773463,20.7830235 C32.8773463,19.9056479 32.7054307,19.1705604 32.3615943,18.577739 C32.0177579,17.9849176 31.5672204,17.4928832 31.0099683,17.1016211 C30.4527162,16.710359 29.8124787,16.3961683 29.0892366,16.1590398 C28.3659945,15.9219112 27.6249789,15.720355 26.8661675,15.554365 C26.1547818,15.388375 25.4434068,15.2283156 24.7320211,15.074182 C24.0206355,14.9200485 23.380398,14.7303485 22.8112894,14.5050764 C22.2421809,14.2798042 21.773859,13.9952542 21.4063098,13.6514178 C21.0387605,13.3075814 20.8549886,12.8748283 20.8549886,12.3531455 C20.8549886,11.8788883 20.9735511,11.4935602 21.2106797,11.1971495 C21.4478082,10.9007388 21.7560707,10.6636138 22.1354764,10.4857674 C22.5148821,10.307921 22.935779,10.1834304 23.3981797,10.1122918 C23.8605804,10.0411532 24.317046,10.0055845 24.7675902,10.0055845 C25.2655602,10.0055845 25.7575946,10.0589376 26.2437081,10.1656455 C26.7298217,10.2723533 27.174431,10.4442689 27.5775496,10.6813975 C27.9806681,10.9185261 28.3126431,11.2327167 28.5734846,11.6239788 C28.834326,12.0152409 28.9884572,12.5072753 29.0358829,13.1000967 L32.0592569,13.1000967 C31.9881183,11.9855925 31.7509933,11.0548768 31.3478748,10.3079219 C30.9447563,9.56096693 30.4052969,8.96815443 29.7294805,8.5294666 C29.0536641,8.09077877 28.2770797,7.78251627 27.3997041,7.60466985 C26.5223284,7.42682344 25.5619722,7.33790156 24.5186065,7.33790156 C23.7123694,7.33790156 22.9002163,7.43867969 22.0821228,7.64023896 C21.2640292,7.84179823 20.5289417,8.15006073 19.8768382,8.56503571 C19.2247347,8.98001068 18.6912034,9.51947006 18.2762285,10.18343 C17.8612535,10.84739 17.6537691,11.6417587 17.6537691,12.5665601 C17.6537691,13.7522029 17.9501754,14.6769904 18.5429967,15.3409503 C19.1358181,16.0049103 19.8768338,16.5206572 20.7660659,16.8882064 C21.6552979,17.2557557 22.6215823,17.5403057 23.664948,17.741865 C24.7083136,17.9434242 25.674598,18.168693 26.5638301,18.417678 C27.4530622,18.666663 28.1940778,18.9927098 28.7868992,19.3958284 C29.3797206,19.7989469 29.6761268,20.3917594 29.6761268,21.1742837 C29.6761268,21.7433922 29.5338518,22.2117141 29.2492976,22.5792633 C28.9647433,22.9468126 28.6031277,23.2254345 28.1644398,23.4151373 C27.725752,23.6048402 27.2455739,23.7352589 26.7238911,23.8063975 C26.2022082,23.8775361 25.7042457,23.9131048 25.2299886,23.9131048 C24.6134544,23.9131048 24.0147137,23.8538236 23.4337488,23.7352593 C22.8527838,23.616695 22.3311088,23.4210669 21.8687081,23.148369 C21.4063074,22.8756712 21.0328356,22.5081275 20.7482813,22.0457268 C20.463727,21.5833261 20.3095958,21.0201542 20.2858829,20.3561942 L20.2858829,20.3561942 Z M38.9952325,4.456804 L38.9952325,0.757617008 L35.9718585,0.757617008 L35.9718585,4.456804 L38.9952325,4.456804 Z M35.9718585,7.76473083 L35.9718585,26.1539585 L38.9952325,26.1539585 L38.9952325,7.76473083 L35.9718585,7.76473083 Z M45.4688098,16.9771292 C45.4688098,15.862625 45.6170129,14.8726281 45.9134236,14.0071089 C46.2098343,13.1415896 46.6188749,12.4124303 47.1405577,11.8196089 C47.6622405,11.2267875 48.2728374,10.77625 48.9723667,10.4679829 C49.6718959,10.1597157 50.4129115,10.0055845 51.1954358,10.0055845 C51.97796,10.0055845 52.7189756,10.1597157 53.4185049,10.4679829 C54.1180341,10.77625 54.728631,11.2267875 55.2503138,11.8196089 C55.7719966,12.4124303 56.1810373,13.1415896 56.477448,14.0071089 C56.7738587,14.8726281 56.9220618,15.862625 56.9220618,16.9771292 C56.9220618,18.0916334 56.7738587,19.0816303 56.477448,19.9471495 C56.1810373,20.8126688 55.7719966,21.5359 55.2503138,22.116865 C54.728631,22.6978299 54.1180341,23.1424393 53.4185049,23.4507064 C52.7189756,23.7589736 51.97796,23.9131048 51.1954358,23.9131048 C50.4129115,23.9131048 49.6718959,23.7589736 48.9723667,23.4507064 C48.2728374,23.1424393 47.6622405,22.6978299 47.1405577,22.116865 C46.6188749,21.5359 46.2098343,20.8126688 45.9134236,19.9471495 C45.6170129,19.0816303 45.4688098,18.0916334 45.4688098,16.9771292 L45.4688098,16.9771292 Z M42.2675902,16.9771292 C42.2675902,18.328762 42.4572902,19.5855245 42.8366959,20.7474544 C43.2161016,21.9093843 43.7852016,22.9230937 44.544013,23.7886129 C45.3028244,24.6541322 46.2394681,25.3299384 47.3539724,25.816052 C48.4684766,26.3021655 49.7489516,26.5452186 51.1954358,26.5452186 C52.6656328,26.5452186 53.952036,26.3021655 55.0546837,25.816052 C56.1573315,25.3299384 57.0880472,24.6541322 57.8468585,23.7886129 C58.6056699,22.9230937 59.1747699,21.9093843 59.5541756,20.7474544 C59.9335813,19.5855245 60.1232813,18.328762 60.1232813,16.9771292 C60.1232813,15.6254964 59.9335813,14.3628058 59.5541756,13.1890194 C59.1747699,12.0152331 58.6056699,10.9955956 57.8468585,10.1300764 C57.0880472,9.26455713 56.1573315,8.58282275 55.0546837,8.08485278 C53.952036,7.58688281 52.6656328,7.33790156 51.1954358,7.33790156 C49.7489516,7.33790156 48.4684766,7.58688281 47.3539724,8.08485278 C46.2394681,8.58282275 45.3028244,9.26455713 44.544013,10.1300764 C43.7852016,10.9955956 43.2161016,12.0152331 42.8366959,13.1890194 C42.4572902,14.3628058 42.2675902,15.6254964 42.2675902,16.9771292 L42.2675902,16.9771292 Z M78.4769398,26.1539585 L78.4769398,7.76473083 L75.4535659,7.76473083 L75.4535659,18.1509097 C75.4535659,18.9808596 75.3409315,19.7455878 75.1156593,20.445117 C74.8903872,21.1446463 74.5524841,21.7552431 74.1019398,22.276926 C73.6513956,22.7986088 73.0882237,23.2017213 72.4124073,23.4862755 C71.7365909,23.7708298 70.9362941,23.9131048 70.0114927,23.9131048 C68.8495628,23.9131048 67.9366315,23.5811298 67.2726715,22.9171699 C66.6087116,22.2532099 66.2767366,21.3521349 66.2767366,20.2139178 L66.2767366,7.76473083 L63.2533626,7.76473083 L63.2533626,19.8582268 C63.2533626,20.8541667 63.3541407,21.7611698 63.5557,22.5792633 C63.7572593,23.3973569 64.1070186,24.1028037 64.6049886,24.6956251 C65.1029586,25.2884465 65.7550523,25.7449122 66.5612894,26.0650357 C67.3675265,26.3851593 68.3753078,26.5452186 69.5846634,26.5452186 C70.9362962,26.5452186 72.1100649,26.278453 73.1060049,25.7449138 C74.1019448,25.2113745 74.9200261,24.3755089 75.5602732,23.2372918 L75.6314114,23.2372918 L75.6314114,26.1539585 L78.4769398,26.1539585 Z M82.1049886,14.8429829 L82.1049886,17.6885113 L92.3844602,17.6885113 L92.3844602,14.8429829 L82.1049886,14.8429829 Z M102.272672,3.60314546 L102.272672,26.1539585 L105.651737,26.1539585 L105.651737,3.60314546 L114.117184,3.60314546 L114.117184,0.757617008 L93.8072244,0.757617008 L93.8072244,3.60314546 L102.272672,3.60314546 Z M113.903769,20.3561942 L110.880395,20.3561942 C110.927821,21.4944113 111.164946,22.4606957 111.591777,23.2550764 C112.018609,24.049457 112.587709,24.6896945 113.299094,25.1758081 C114.01048,25.6619216 114.828561,26.011681 115.753363,26.2250967 C116.678164,26.4385124 117.650376,26.5452186 118.670029,26.5452186 C119.594831,26.5452186 120.525546,26.4562968 121.462204,26.2784503 C122.398862,26.1006039 123.240656,25.7864133 123.987611,25.335869 C124.734566,24.8853248 125.339234,24.2925123 125.801635,23.5574138 C126.264036,22.8223152 126.495233,21.8975277 126.495233,20.7830235 C126.495233,19.9056479 126.323317,19.1705604 125.97948,18.577739 C125.635644,17.9849176 125.185107,17.4928832 124.627854,17.1016211 C124.070602,16.710359 123.430365,16.3961683 122.707123,16.1590398 C121.983881,15.9219112 121.242865,15.720355 120.484054,15.554365 C119.772668,15.388375 119.061293,15.2283156 118.349907,15.074182 C117.638522,14.9200485 116.998284,14.7303485 116.429176,14.5050764 C115.860067,14.2798042 115.391745,13.9952542 115.024196,13.6514178 C114.656647,13.3075814 114.472875,12.8748283 114.472875,12.3531455 C114.472875,11.8788883 114.591437,11.4935602 114.828566,11.1971495 C115.065694,10.9007388 115.373957,10.6636138 115.753363,10.4857674 C116.132768,10.307921 116.553665,10.1834304 117.016066,10.1122918 C117.478467,10.0411532 117.934932,10.0055845 118.385476,10.0055845 C118.883446,10.0055845 119.375481,10.0589376 119.861594,10.1656455 C120.347708,10.2723533 120.792317,10.4442689 121.195436,10.6813975 C121.598554,10.9185261 121.930529,11.2327167 122.191371,11.6239788 C122.452212,12.0152409 122.606343,12.5072753 122.653769,13.1000967 L125.677143,13.1000967 C125.606005,11.9855925 125.36888,11.0548768 124.965761,10.3079219 C124.562642,9.56096693 124.023183,8.96815443 123.347367,8.5294666 C122.67155,8.09077877 121.894966,7.78251627 121.01759,7.60466985 C120.140215,7.42682344 119.179858,7.33790156 118.136493,7.33790156 C117.330256,7.33790156 116.518102,7.43867969 115.700009,7.64023896 C114.881915,7.84179823 114.146828,8.15006073 113.494724,8.56503571 C112.842621,8.98001068 112.30909,9.51947006 111.894115,10.18343 C111.47914,10.84739 111.271655,11.6417587 111.271655,12.5665601 C111.271655,13.7522029 111.568062,14.6769904 112.160883,15.3409503 C112.753704,16.0049103 113.49472,16.5206572 114.383952,16.8882064 C115.273184,17.2557557 116.239468,17.5403057 117.282834,17.741865 C118.3262,17.9434242 119.292484,18.168693 120.181716,18.417678 C121.070948,18.666663 121.811964,18.9927098 122.404785,19.3958284 C122.997607,19.7989469 123.294013,20.3917594 123.294013,21.1742837 C123.294013,21.7433922 123.151738,22.2117141 122.867184,22.5792633 C122.582629,22.9468126 122.221014,23.2254345 121.782326,23.4151373 C121.343638,23.6048402 120.86346,23.7352589 120.341777,23.8063975 C119.820094,23.8775361 119.322132,23.9131048 118.847875,23.9131048 C118.231341,23.9131048 117.6326,23.8538236 117.051635,23.7352593 C116.47067,23.616695 115.948995,23.4210669 115.486594,23.148369 C115.024194,22.8756712 114.650722,22.5081275 114.366167,22.0457268 C114.081613,21.5833261 113.927482,21.0201542 113.903769,20.3561942 L113.903769,20.3561942 Z M132.613119,4.456804 L132.613119,0.757617008 L129.589745,0.757617008 L129.589745,4.456804 L132.613119,4.456804 Z M129.589745,7.76473083 L129.589745,26.1539585 L132.613119,26.1539585 L132.613119,7.76473083 L129.589745,7.76473083 Z M139.086696,16.9771292 C139.086696,15.862625 139.234899,14.8726281 139.53131,14.0071089 C139.82772,13.1415896 140.236761,12.4124303 140.758444,11.8196089 C141.280127,11.2267875 141.890724,10.77625 142.590253,10.4679829 C143.289782,10.1597157 144.030798,10.0055845 144.813322,10.0055845 C145.595846,10.0055845 146.336862,10.1597157 147.036391,10.4679829 C147.73592,10.77625 148.346517,11.2267875 148.8682,11.8196089 C149.389883,12.4124303 149.798923,13.1415896 150.095334,14.0071089 C150.391745,14.8726281 150.539948,15.862625 150.539948,16.9771292 C150.539948,18.0916334 150.391745,19.0816303 150.095334,19.9471495 C149.798923,20.8126688 149.389883,21.5359 148.8682,22.116865 C148.346517,22.6978299 147.73592,23.1424393 147.036391,23.4507064 C146.336862,23.7589736 145.595846,23.9131048 144.813322,23.9131048 C144.030798,23.9131048 143.289782,23.7589736 142.590253,23.4507064 C141.890724,23.1424393 141.280127,22.6978299 140.758444,22.116865 C140.236761,21.5359 139.82772,20.8126688 139.53131,19.9471495 C139.234899,19.0816303 139.086696,18.0916334 139.086696,16.9771292 L139.086696,16.9771292 Z M135.885476,16.9771292 C135.885476,18.328762 136.075176,19.5855245 136.454582,20.7474544 C136.833988,21.9093843 137.403088,22.9230937 138.161899,23.7886129 C138.920711,24.6541322 139.857354,25.3299384 140.971859,25.816052 C142.086363,26.3021655 143.366838,26.5452186 144.813322,26.5452186 C146.283519,26.5452186 147.569922,26.3021655 148.67257,25.816052 C149.775218,25.3299384 150.705933,24.6541322 151.464745,23.7886129 C152.223556,22.9230937 152.792656,21.9093843 153.172062,20.7474544 C153.551467,19.5855245 153.741167,18.328762 153.741167,16.9771292 C153.741167,15.6254964 153.551467,14.3628058 153.172062,13.1890194 C152.792656,12.0152331 152.223556,10.9955956 151.464745,10.1300764 C150.705933,9.26455713 149.775218,8.58282275 148.67257,8.08485278 C147.569922,7.58688281 146.283519,7.33790156 144.813322,7.33790156 C143.366838,7.33790156 142.086363,7.58688281 140.971859,8.08485278 C139.857354,8.58282275 138.920711,9.26455713 138.161899,10.1300764 C137.403088,10.9955956 136.833988,12.0152331 136.454582,13.1890194 C136.075176,14.3628058 135.885476,15.6254964 135.885476,16.9771292 L135.885476,16.9771292 Z M172.094826,26.1539585 L172.094826,7.76473083 L169.071452,7.76473083 L169.071452,18.1509097 C169.071452,18.9808596 168.958818,19.7455878 168.733546,20.445117 C168.508273,21.1446463 168.17037,21.7552431 167.719826,22.276926 C167.269282,22.7986088 166.70611,23.2017213 166.030293,23.4862755 C165.354477,23.7708298 164.55418,23.9131048 163.629379,23.9131048 C162.467449,23.9131048 161.554518,23.5811298 160.890558,22.9171699 C160.226598,22.2532099 159.894623,21.3521349 159.894623,20.2139178 L159.894623,7.76473083 L156.871249,7.76473083 L156.871249,19.8582268 C156.871249,20.8541667 156.972027,21.7611698 157.173586,22.5792633 C157.375145,23.3973569 157.724905,24.1028037 158.222875,24.6956251 C158.720845,25.2884465 159.372939,25.7449122 160.179176,26.0650357 C160.985413,26.3851593 161.993194,26.5452186 163.20255,26.5452186 C164.554182,26.5452186 165.727951,26.278453 166.723891,25.7449138 C167.719831,25.2113745 168.537912,24.3755089 169.178159,23.2372918 L169.249298,23.2372918 L169.249298,26.1539585 L172.094826,26.1539585 Z"></path>
            </g>
            <g class="jiyk-jiyk" transform="translate(176.000000, 39.000000)" sketch:type="MSShapeGroup">
                <path d="M15.8041756,19.8226577 L15.8041756,0.757617008 L12.4251106,0.757617008 L12.4251106,19.3246902 C12.4251106,20.7237487 12.1346324,21.8382362 11.5536675,22.6681861 C10.9727025,23.4981361 9.91156814,23.9131048 8.37023252,23.9131048 C7.54028257,23.9131048 6.8585482,23.7886142 6.32500894,23.5396292 C5.79146969,23.2906442 5.37650094,22.9408848 5.08009024,22.4903406 C4.78367955,22.0397963 4.57619517,21.5062651 4.45763089,20.8897308 C4.33906662,20.2731966 4.27978537,19.5973903 4.27978537,18.8622918 L4.27978537,17.7952186 L0.900720325,17.7952186 L0.900720325,19.3602593 C0.900720325,21.7789706 1.54095783,23.6107612 2.82145203,24.8556861 C4.10194624,26.100611 5.92780874,26.7230642 8.29909431,26.7230642 C9.72186565,26.7230642 10.9134188,26.527436 11.8737894,26.1361739 C12.8341601,25.7449118 13.6048163,25.2232368 14.1857813,24.5711333 C14.7667463,23.9190297 15.181715,23.1780141 15.4307,22.3480642 C15.679685,21.5181142 15.8041756,20.6763205 15.8041756,19.8226577 L15.8041756,19.8226577 Z M23.6293789,4.456804 L23.6293789,0.757617008 L20.6060049,0.757617008 L20.6060049,4.456804 L23.6293789,4.456804 Z M20.6060049,7.76473083 L20.6060049,26.1539585 L23.6293789,26.1539585 L23.6293789,7.76473083 L20.6060049,7.76473083 Z M35.1182,28.6082268 C34.7625072,29.5093153 34.4127478,30.2681153 34.0689114,30.8846495 C33.725075,31.5011838 33.345675,32.0050744 32.9307,32.3963365 C32.515725,32.7875986 32.0533313,33.0721486 31.5435049,33.2499951 C31.0336785,33.4278415 30.4467941,33.5167633 29.7828341,33.5167633 C29.4271413,33.5167633 29.0714538,33.4930508 28.715761,33.4456251 C28.3600681,33.3981994 28.0162369,33.3152057 27.6842569,33.1966414 L27.6842569,30.4222512 C27.9450983,30.5408154 28.2474327,30.6415936 28.5912691,30.7245886 C28.9351055,30.8075835 29.2255836,30.8490804 29.4627122,30.8490804 C30.0792464,30.8490804 30.5949933,30.7008773 31.0099683,30.4044666 C31.4249433,30.1080559 31.7391339,29.687159 31.9525496,29.1417633 L33.1974683,26.0472512 L25.9058016,7.76473083 L29.3204358,7.76473083 L34.6913707,22.8104625 L34.7625089,22.8104625 L39.9200293,7.76473083 L43.1212488,7.76473083 L35.1182,28.6082268 Z M45.4332407,0.757617008 L45.4332407,26.1539585 L48.4566146,26.1539585 L48.4566146,19.1824138 L51.3021431,16.5502999 L57.5978748,26.1539585 L61.4393382,26.1539585 L53.614135,14.4517227 L60.9058016,7.76473083 L56.8509236,7.76473083 L48.4566146,15.8033487 L48.4566146,0.757617008 L45.4332407,0.757617008 Z M62.7909642,14.8429829 L62.7909642,17.6885113 L73.0704358,17.6885113 L73.0704358,14.8429829 L62.7909642,14.8429829 Z M90.1080374,19.8226577 L90.1080374,0.757617008 L86.7289724,0.757617008 L86.7289724,19.3246902 C86.7289724,20.7237487 86.4384942,21.8382362 85.8575293,22.6681861 C85.2765643,23.4981361 84.2154299,23.9131048 82.6740943,23.9131048 C81.8441444,23.9131048 81.16241,23.7886142 80.6288707,23.5396292 C80.0953315,23.2906442 79.6803627,22.9408848 79.383952,22.4903406 C79.0875413,22.0397963 78.880057,21.5062651 78.7614927,20.8897308 C78.6429284,20.2731966 78.5836472,19.5973903 78.5836472,18.8622918 L78.5836472,17.7952186 L75.2045821,17.7952186 L75.2045821,19.3602593 C75.2045821,21.7789706 75.8448196,23.6107612 77.1253138,24.8556861 C78.405808,26.100611 80.2316705,26.7230642 82.6029561,26.7230642 C84.0257274,26.7230642 85.2172806,26.527436 86.1776512,26.1361739 C87.1380219,25.7449118 87.9086781,25.2232368 88.4896431,24.5711333 C89.0706081,23.9190297 89.4855768,23.1780141 89.7345618,22.3480642 C89.9835468,21.5181142 90.1080374,20.6763205 90.1080374,19.8226577 L90.1080374,19.8226577 Z M97.9332407,4.456804 L97.9332407,0.757617008 L94.9098667,0.757617008 L94.9098667,4.456804 L97.9332407,4.456804 Z M94.9098667,7.76473083 L94.9098667,26.1539585 L97.9332407,26.1539585 L97.9332407,7.76473083 L94.9098667,7.76473083 Z M109.422062,28.6082268 C109.066369,29.5093153 108.71661,30.2681153 108.372773,30.8846495 C108.028937,31.5011838 107.649537,32.0050744 107.234562,32.3963365 C106.819587,32.7875986 106.357193,33.0721486 105.847367,33.2499951 C105.33754,33.4278415 104.750656,33.5167633 104.086696,33.5167633 C103.731003,33.5167633 103.375316,33.4930508 103.019623,33.4456251 C102.66393,33.3981994 102.320099,33.3152057 101.988119,33.1966414 L101.988119,30.4222512 C102.24896,30.5408154 102.551294,30.6415936 102.895131,30.7245886 C103.238967,30.8075835 103.529445,30.8490804 103.766574,30.8490804 C104.383108,30.8490804 104.898855,30.7008773 105.31383,30.4044666 C105.728805,30.1080559 106.042996,29.687159 106.256411,29.1417633 L107.50133,26.0472512 L100.209663,7.76473083 L103.624298,7.76473083 L108.995233,22.8104625 L109.066371,22.8104625 L114.223891,7.76473083 L117.425111,7.76473083 L109.422062,28.6082268 Z M119.737102,0.757617008 L119.737102,26.1539585 L122.760476,26.1539585 L122.760476,19.1824138 L125.606005,16.5502999 L131.901737,26.1539585 L135.7432,26.1539585 L127.917997,14.4517227 L135.209663,7.76473083 L131.154785,7.76473083 L122.760476,15.8033487 L122.760476,0.757617008 L119.737102,0.757617008 Z"></path>
            </g>
            <g class="tjiep" transform="translate(176.000000, 39.000000)" sketch:type="MSShapeGroup">
                <path d="M8.65478537,3.60314546 L8.65478537,26.1539585 L12.0338504,26.1539585 L12.0338504,3.60314546 L20.4992976,3.60314546 L20.4992976,0.757617008 L0.189338211,0.757617008 L0.189338211,3.60314546 L8.65478537,3.60314546 Z M25.5856797,4.456804 L25.5856797,0.757617008 L22.5623057,0.757617008 L22.5623057,4.456804 L25.5856797,4.456804 Z M25.5856797,28.4659503 L25.5856797,7.76473083 L22.5623057,7.76473083 L22.5623057,27.9679829 C22.5623057,28.9164971 22.4437432,29.574519 22.2066146,29.9420682 C21.9694861,30.3096175 21.5189486,30.4933894 20.8549886,30.4933894 L20.2147447,30.4933894 C20.1198933,30.4933894 20.0309714,30.4874612 19.9479764,30.4756048 C19.8649814,30.4637484 19.7642033,30.445964 19.645639,30.4222512 L19.645639,33.0187959 C20.1198961,33.1136473 20.6297149,33.1610723 21.1751106,33.1610723 C22.5267433,33.1610723 23.599734,32.7876004 24.3941146,32.0406455 C25.1884953,31.2936905 25.5856797,30.1021374 25.5856797,28.4659503 L25.5856797,28.4659503 Z M33.0551919,4.456804 L33.0551919,0.757617008 L30.0318179,0.757617008 L30.0318179,4.456804 L33.0551919,4.456804 Z M30.0318179,7.76473083 L30.0318179,26.1539585 L33.0551919,26.1539585 L33.0551919,7.76473083 L30.0318179,7.76473083 Z M50.0927935,15.1986739 L39.5287691,15.1986739 C39.5761948,14.4872882 39.7303261,13.8174101 39.9911675,13.1890194 C40.2520089,12.5606288 40.6076964,12.0093131 41.0582407,11.535056 C41.5087849,11.0607989 42.0482443,10.687327 42.676635,10.4146292 C43.3050256,10.1419314 44.0104725,10.0055845 44.7929967,10.0055845 C45.5518081,10.0055845 46.2453988,10.1419314 46.8737894,10.4146292 C47.5021801,10.687327 48.0475676,11.0548708 48.5099683,11.5172715 C48.972369,11.9796722 49.3399127,12.5309878 49.6126106,13.1712349 C49.8853084,13.811482 50.0453678,14.4872882 50.0927935,15.1986739 L50.0927935,15.1986739 Z M53.0094602,20.3206251 L50.0216553,20.3206251 C49.7608139,21.5299808 49.2213545,22.4310558 48.403261,23.0238772 C47.5851675,23.6166986 46.5358893,23.9131048 45.2553951,23.9131048 C44.2594552,23.9131048 43.3939489,23.7471173 42.6588504,23.4151373 C41.9237519,23.0831574 41.3190831,22.638548 40.844826,22.0812959 C40.3705689,21.5240438 40.0267377,20.8838063 39.813322,20.1605642 C39.5999063,19.4373221 39.5050562,18.6725939 39.5287691,17.8663568 L53.294013,17.8663568 C53.3414387,16.7518526 53.2406606,15.5780839 52.9916756,14.3450154 C52.7426906,13.1119469 52.2921531,11.9737469 51.6400496,10.9303812 C50.9879461,9.88701559 50.1224398,9.02743746 49.0435049,8.35162107 C47.9645699,7.67580469 46.6070293,7.33790156 44.9708423,7.33790156 C43.7140609,7.33790156 42.5580765,7.57502656 41.5028545,8.04928367 C40.4476324,8.52354079 39.5347011,9.18749079 38.7640333,10.0411536 C37.9933655,10.8948164 37.3946249,11.9025976 36.9677935,13.0645276 C36.5409621,14.2264575 36.3275496,15.5069325 36.3275496,16.905991 C36.3749753,18.3050495 36.5824597,19.5973807 36.9500089,20.7830235 C37.3175582,21.9686663 37.8688738,22.9883038 38.6039724,23.8419666 C39.3390709,24.6956294 40.246074,25.3595794 41.3250089,25.8338365 C42.4039439,26.3080936 43.6784908,26.5452186 45.1486878,26.5452186 C47.2354191,26.5452186 48.9664316,26.0235436 50.3417772,24.980178 C51.7171229,23.9368123 52.6063416,22.3836436 53.0094602,20.3206251 L53.0094602,20.3206251 Z M56.1039724,7.76473083 L56.1039724,33.1610723 L59.1273463,33.1610723 L59.1273463,23.6996902 L59.1984846,23.6996902 C59.5304645,24.2450859 59.9395052,24.7015515 60.4256187,25.0691007 C60.9117322,25.43665 61.4274791,25.7271281 61.9728748,25.9405438 C62.5182705,26.1539595 63.0695861,26.3080908 63.6268382,26.4029422 C64.1840903,26.4977936 64.6879809,26.5452186 65.1385252,26.5452186 C66.5375837,26.5452186 67.7647056,26.2962374 68.8199276,25.7982674 C69.8751497,25.3002974 70.7525122,24.6185631 71.4520415,23.7530438 C72.1515707,22.8875246 72.6732457,21.8738152 73.0170821,20.7118853 C73.3609185,19.5499554 73.5328341,18.3169054 73.5328341,17.0126983 C73.5328341,15.7084912 73.3549904,14.4754412 72.9992976,13.3135113 C72.6436047,12.1515814 72.1160016,11.1260158 71.4164724,10.2367837 C70.7169431,9.34755159 69.8395806,8.64210471 68.7843585,8.12042189 C67.7291365,7.59873906 66.4901583,7.33790156 65.067387,7.33790156 C63.7868928,7.33790156 62.613124,7.56909844 61.5460455,8.03149912 C60.478967,8.49389981 59.6964545,9.23491543 59.1984846,10.2545682 L59.1273463,10.2545682 L59.1273463,7.76473083 L56.1039724,7.76473083 Z M70.3316146,16.7992837 C70.3316146,17.7003722 70.2367646,18.5777347 70.0470618,19.4313975 C69.8573589,20.2850603 69.5490964,21.0438603 69.122265,21.7078203 C68.6954336,22.3717802 68.1322618,22.9053115 67.4327325,23.30843 C66.7332033,23.7115486 65.8617689,23.9131048 64.8184033,23.9131048 C63.7750376,23.9131048 62.8858189,23.7174767 62.1507203,23.3262146 C61.4156218,22.9349525 60.8168812,22.4192056 60.3544805,21.7789585 C59.8920798,21.1387114 59.5541767,20.3976957 59.340761,19.5558894 C59.1273453,18.714083 59.020639,17.8426486 59.020639,16.9415601 C59.020639,16.0878973 59.1214171,15.2461035 59.3229764,14.4161536 C59.5245357,13.5862036 59.8505826,12.845188 60.3011268,12.1930845 C60.7516711,11.540981 61.3326273,11.0133778 62.044013,10.6102593 C62.7553987,10.2071407 63.6209049,10.0055845 64.6405577,10.0055845 C65.6127848,10.0055845 66.4605067,10.1952845 67.1837488,10.5746902 C67.9069909,10.9540959 68.4998034,11.4639146 68.9622041,12.1041617 C69.4246048,12.7444088 69.768436,13.4735682 69.9937081,14.2916617 C70.2189803,15.1097552 70.3316146,15.9456209 70.3316146,16.7992837 L70.3316146,16.7992837 Z"></path>
            </g>
            <g class="pip-pip" transform="translate(178.000000, 39.000000)" sketch:type="MSShapeGroup">
                <path d="M4.27165528,12.9222512 L4.27165528,3.60314546 L10.8875089,3.60314546 C12.8082503,3.60314546 14.2132159,4.00032984 15.102448,4.7947105 C15.9916801,5.58909117 16.4362894,6.74507554 16.4362894,8.26269831 C16.4362894,9.78032107 15.9916801,10.9422336 15.102448,11.7484707 C14.2132159,12.5547078 12.8082503,12.945964 10.8875089,12.9222512 L4.27165528,12.9222512 Z M0.892590244,0.757617008 L0.892590244,26.1539585 L4.27165528,26.1539585 L4.27165528,15.7677796 L12.0257203,15.7677796 C14.5867087,15.7914925 16.5252056,15.1393987 17.8412691,13.8114788 C19.1573326,12.4835589 19.8153545,10.6339839 19.8153545,8.26269831 C19.8153545,5.89141274 19.1573326,4.04776586 17.8412691,2.73170237 C16.5252056,1.41563888 14.5867087,0.757617008 12.0257203,0.757617008 L0.892590244,0.757617008 Z M26.2177935,4.456804 L26.2177935,0.757617008 L23.1944195,0.757617008 L23.1944195,4.456804 L26.2177935,4.456804 Z M23.1944195,7.76473083 L23.1944195,26.1539585 L26.2177935,26.1539585 L26.2177935,7.76473083 L23.1944195,7.76473083 Z M30.5927935,7.76473083 L30.5927935,33.1610723 L33.6161675,33.1610723 L33.6161675,23.6996902 L33.6873057,23.6996902 C34.0192857,24.2450859 34.4283263,24.7015515 34.9144398,25.0691007 C35.4005534,25.43665 35.9163003,25.7271281 36.4616959,25.9405438 C37.0070916,26.1539595 37.5584072,26.3080908 38.1156593,26.4029422 C38.6729115,26.4977936 39.1768021,26.5452186 39.6273463,26.5452186 C41.0264048,26.5452186 42.2535267,26.2962374 43.3087488,25.7982674 C44.3639709,25.3002974 45.2413334,24.6185631 45.9408626,23.7530438 C46.6403918,22.8875246 47.1620668,21.8738152 47.5059033,20.7118853 C47.8497397,19.5499554 48.0216553,18.3169054 48.0216553,17.0126983 C48.0216553,15.7084912 47.8438115,14.4754412 47.4881187,13.3135113 C47.1324259,12.1515814 46.6048227,11.1260158 45.9052935,10.2367837 C45.2057643,9.34755159 44.3284018,8.64210471 43.2731797,8.12042189 C42.2179576,7.59873906 40.9789795,7.33790156 39.5562081,7.33790156 C38.2757139,7.33790156 37.1019452,7.56909844 36.0348667,8.03149912 C34.9677882,8.49389981 34.1852757,9.23491543 33.6873057,10.2545682 L33.6161675,10.2545682 L33.6161675,7.76473083 L30.5927935,7.76473083 Z M44.8204358,16.7992837 C44.8204358,17.7003722 44.7255858,18.5777347 44.5358829,19.4313975 C44.3461801,20.2850603 44.0379176,21.0438603 43.6110862,21.7078203 C43.1842548,22.3717802 42.6210829,22.9053115 41.9215537,23.30843 C41.2220244,23.7115486 40.35059,23.9131048 39.3072244,23.9131048 C38.2638587,23.9131048 37.37464,23.7174767 36.6395415,23.3262146 C35.9044429,22.9349525 35.3057023,22.4192056 34.8433016,21.7789585 C34.3809009,21.1387114 34.0429978,20.3976957 33.8295821,19.5558894 C33.6161664,18.714083 33.5094602,17.8426486 33.5094602,16.9415601 C33.5094602,16.0878973 33.6102383,15.2461035 33.8117976,14.4161536 C34.0133568,13.5862036 34.3394037,12.845188 34.789948,12.1930845 C35.2404922,11.540981 35.8214485,11.0133778 36.5328341,10.6102593 C37.2442198,10.2071407 38.1097261,10.0055845 39.1293789,10.0055845 C40.1016059,10.0055845 40.9493278,10.1952845 41.6725699,10.5746902 C42.395812,10.9540959 42.9886245,11.4639146 43.4510252,12.1041617 C43.9134259,12.7444088 44.2572571,13.4735682 44.4825293,14.2916617 C44.7078014,15.1097552 44.8204358,15.9456209 44.8204358,16.7992837 L44.8204358,16.7992837 Z M50.6537691,14.8429829 L50.6537691,17.6885113 L60.9332407,17.6885113 L60.9332407,14.8429829 L50.6537691,14.8429829 Z M68.438322,12.9222512 L68.438322,3.60314546 L75.0541756,3.60314546 C76.9749169,3.60314546 78.3798825,4.00032984 79.2691146,4.7947105 C80.1583467,5.58909117 80.6029561,6.74507554 80.6029561,8.26269831 C80.6029561,9.78032107 80.1583467,10.9422336 79.2691146,11.7484707 C78.3798825,12.5547078 76.9749169,12.945964 75.0541756,12.9222512 L68.438322,12.9222512 Z M65.0592569,0.757617008 L65.0592569,26.1539585 L68.438322,26.1539585 L68.438322,15.7677796 L76.192387,15.7677796 C78.7533754,15.7914925 80.6918723,15.1393987 82.0079358,13.8114788 C83.3239993,12.4835589 83.9820211,10.6339839 83.9820211,8.26269831 C83.9820211,5.89141274 83.3239993,4.04776586 82.0079358,2.73170237 C80.6918723,1.41563888 78.7533754,0.757617008 76.192387,0.757617008 L65.0592569,0.757617008 Z M90.3844602,4.456804 L90.3844602,0.757617008 L87.3610862,0.757617008 L87.3610862,4.456804 L90.3844602,4.456804 Z M87.3610862,7.76473083 L87.3610862,26.1539585 L90.3844602,26.1539585 L90.3844602,7.76473083 L87.3610862,7.76473083 Z M94.7594602,7.76473083 L94.7594602,33.1610723 L97.7828341,33.1610723 L97.7828341,23.6996902 L97.8539724,23.6996902 C98.1859523,24.2450859 98.594993,24.7015515 99.0811065,25.0691007 C99.56722,25.43665 100.082967,25.7271281 100.628363,25.9405438 C101.173758,26.1539595 101.725074,26.3080908 102.282326,26.4029422 C102.839578,26.4977936 103.343469,26.5452186 103.794013,26.5452186 C105.193071,26.5452186 106.420193,26.2962374 107.475415,25.7982674 C108.530638,25.3002974 109.408,24.6185631 110.107529,23.7530438 C110.807059,22.8875246 111.328734,21.8738152 111.67257,20.7118853 C112.016406,19.5499554 112.188322,18.3169054 112.188322,17.0126983 C112.188322,15.7084912 112.010478,14.4754412 111.654785,13.3135113 C111.299093,12.1515814 110.771489,11.1260158 110.07196,10.2367837 C109.372431,9.34755159 108.495068,8.64210471 107.439846,8.12042189 C106.384624,7.59873906 105.145646,7.33790156 103.722875,7.33790156 C102.442381,7.33790156 101.268612,7.56909844 100.201533,8.03149912 C99.1344548,8.49389981 98.3519423,9.23491543 97.8539724,10.2545682 L97.7828341,10.2545682 L97.7828341,7.76473083 L94.7594602,7.76473083 Z M108.987102,16.7992837 C108.987102,17.7003722 108.892252,18.5777347 108.70255,19.4313975 C108.512847,20.2850603 108.204584,21.0438603 107.777753,21.7078203 C107.350921,22.3717802 106.78775,22.9053115 106.08822,23.30843 C105.388691,23.7115486 104.517257,23.9131048 103.473891,23.9131048 C102.430525,23.9131048 101.541307,23.7174767 100.806208,23.3262146 C100.07111,22.9349525 99.472369,22.4192056 99.0099683,21.7789585 C98.5475676,21.1387114 98.2096645,20.3976957 97.9962488,19.5558894 C97.7828331,18.714083 97.6761268,17.8426486 97.6761268,16.9415601 C97.6761268,16.0878973 97.776905,15.2461035 97.9784642,14.4161536 C98.1800235,13.5862036 98.5060704,12.845188 98.9566146,12.1930845 C99.4071589,11.540981 99.9881151,11.0133778 100.699501,10.6102593 C101.410886,10.2071407 102.276393,10.0055845 103.296046,10.0055845 C104.268273,10.0055845 105.115994,10.1952845 105.839237,10.5746902 C106.562479,10.9540959 107.155291,11.4639146 107.617692,12.1041617 C108.080093,12.7444088 108.423924,13.4735682 108.649196,14.2916617 C108.874468,15.1097552 108.987102,15.9456209 108.987102,16.7992837 L108.987102,16.7992837 Z"></path>
            </g>
            <g class="chun-chun" transform="translate(177.000000, 39.000000)" sketch:type="MSShapeGroup">
                <path d="M19.7482813,8.40497473 L23.1273463,8.40497473 C22.9376435,7.05334196 22.534531,5.86178883 21.9179967,4.83027961 C21.3014625,3.79877039 20.5308063,2.93919226 19.6060049,2.25151945 C18.6812035,1.56384663 17.6259973,1.04217163 16.4403545,0.686478797 C15.2547117,0.330785962 13.9979492,0.152942212 12.6700293,0.152942212 C10.7255751,0.152942212 9.00049073,0.502701587 7.49472439,1.20223083 C5.98895805,1.90176007 4.73219555,2.8561882 3.72439919,4.06554384 C2.71660282,5.27489948 1.9518747,6.69172135 1.43019187,8.31605197 C0.908509045,9.94038258 0.647671545,11.6773232 0.647671545,13.526926 C0.647671545,15.3765287 0.89072467,17.1075412 1.37683821,18.7200154 C1.86295175,20.3324896 2.59211113,21.7315271 3.56433821,22.9171699 C4.53656529,24.1028126 5.75775904,25.0335283 7.2279561,25.7093447 C8.69815315,26.385161 10.4173094,26.7230642 12.3854764,26.7230642 C15.6341377,26.7230642 18.1950877,25.8338454 20.0684033,24.0553812 C21.9417189,22.2769171 23.0443501,19.7871046 23.3763301,16.585869 L19.997265,16.585869 C19.9261265,17.6292347 19.712714,18.6014472 19.3570211,19.5025357 C19.0013283,20.4036242 18.5092939,21.1802086 17.8809033,21.8323121 C17.2525126,22.4844157 16.5055688,22.9942344 15.6400496,23.3617837 C14.7745304,23.7293329 13.7845335,23.9131048 12.6700293,23.9131048 C11.1524065,23.9131048 9.848219,23.6285548 8.75742764,23.0594463 C7.66663628,22.4903377 6.77148941,21.7256096 6.07196016,20.765239 C5.37243092,19.8048683 4.85668404,18.6785246 4.52470407,17.3861739 C4.19272409,16.0938233 4.02673659,14.7244264 4.02673659,13.2779422 C4.02673659,11.9500223 4.19272409,10.6695473 4.52470407,9.4364788 C4.85668404,8.2034103 5.37243092,7.10670718 6.07196016,6.14633652 C6.77148941,5.18596586 7.66070816,4.42123774 8.73964309,3.8521292 C9.81857802,3.28302067 11.1168374,2.99847067 12.6344602,2.99847067 C14.4129243,2.99847067 15.9483087,3.44900817 17.2406593,4.35009668 C18.53301,5.2511852 19.3688756,6.6027977 19.7482813,8.40497473 L19.7482813,8.40497473 Z M26.6486878,0.757617008 L26.6486878,26.1539585 L29.6720618,26.1539585 L29.6720618,15.7677796 C29.6720618,14.9378297 29.7846962,14.1731015 30.0099683,13.4735723 C30.2352404,12.774043 30.5731435,12.1634462 31.0236878,11.6417633 C31.4742321,11.1200805 32.0374039,10.716968 32.7132203,10.4324138 C33.3890367,10.1478595 34.1893336,10.0055845 35.114135,10.0055845 C36.2760649,10.0055845 37.1889961,10.3375595 37.8529561,11.0015194 C38.5169161,11.6654794 38.8488911,12.5665544 38.8488911,13.7047715 L38.8488911,26.1539585 L41.872265,26.1539585 L41.872265,14.0604625 C41.872265,13.0645226 41.7714869,12.1575195 41.5699276,11.339426 C41.3683684,10.5213324 41.018609,9.81588556 40.520639,9.22306416 C40.0226691,8.63024277 39.3705753,8.16784902 38.5643382,7.83586904 C37.7581011,7.50388906 36.7503199,7.33790156 35.5409642,7.33790156 C34.9955685,7.33790156 34.4323967,7.39718281 33.8514317,7.51574709 C33.2704667,7.63431137 32.713223,7.81808324 32.1796837,8.06706823 C31.6461445,8.31605321 31.1659664,8.63617196 30.739135,9.02743408 C30.3123036,9.4186962 29.9803286,9.89887433 29.7432,10.4679829 L29.6720618,10.4679829 L29.6720618,0.757617008 L26.6486878,0.757617008 Z M61.2218585,26.1539585 L61.2218585,7.76473083 L58.1984846,7.76473083 L58.1984846,18.1509097 C58.1984846,18.9808596 58.0858502,19.7455878 57.860578,20.445117 C57.6353059,21.1446463 57.2974028,21.7552431 56.8468585,22.276926 C56.3963143,22.7986088 55.8331424,23.2017213 55.157326,23.4862755 C54.4815096,23.7708298 53.6812128,23.9131048 52.7564114,23.9131048 C51.5944815,23.9131048 50.6815502,23.5811298 50.0175902,22.9171699 C49.3536303,22.2532099 49.0216553,21.3521349 49.0216553,20.2139178 L49.0216553,7.76473083 L45.9982813,7.76473083 L45.9982813,19.8582268 C45.9982813,20.8541667 46.0990594,21.7611698 46.3006187,22.5792633 C46.502178,23.3973569 46.8519373,24.1028037 47.3499073,24.6956251 C47.8478773,25.2884465 48.499971,25.7449122 49.3062081,26.0650357 C50.1124452,26.3851593 51.1202265,26.5452186 52.3295821,26.5452186 C53.6812149,26.5452186 54.8549836,26.278453 55.8509236,25.7449138 C56.8468635,25.2113745 57.6649448,24.3755089 58.3051919,23.2372918 L58.3763301,23.2372918 L58.3763301,26.1539585 L61.2218585,26.1539585 Z M65.3478748,7.76473083 L65.3478748,26.1539585 L68.3712488,26.1539585 L68.3712488,15.7677796 C68.3712488,14.9378297 68.4838832,14.1731015 68.7091553,13.4735723 C68.9344274,12.774043 69.2723305,12.1634462 69.7228748,11.6417633 C70.1734191,11.1200805 70.7365909,10.716968 71.4124073,10.4324138 C72.0882237,10.1478595 72.8885206,10.0055845 73.813322,10.0055845 C74.9752519,10.0055845 75.8881831,10.3375595 76.5521431,11.0015194 C77.216103,11.6654794 77.548078,12.5665544 77.548078,13.7047715 L77.548078,26.1539585 L80.571452,26.1539585 L80.571452,14.0604625 C80.571452,13.0645226 80.4706739,12.1575195 80.2691146,11.339426 C80.0675554,10.5213324 79.717796,9.81588556 79.219826,9.22306416 C78.721856,8.63024277 78.0697623,8.16784902 77.2635252,7.83586904 C76.4572881,7.50388906 75.4495069,7.33790156 74.2401512,7.33790156 C71.5131728,7.33790156 69.5213228,8.45238906 68.2645415,10.6813975 L68.1934033,10.6813975 L68.1934033,7.76473083 L65.3478748,7.76473083 Z M84.1995008,14.8429829 L84.1995008,17.6885113 L94.4789724,17.6885113 L94.4789724,14.8429829 L84.1995008,14.8429829 Z M116.46068,8.40497473 L119.839745,8.40497473 C119.650042,7.05334196 119.246929,5.86178883 118.630395,4.83027961 C118.013861,3.79877039 117.243205,2.93919226 116.318403,2.25151945 C115.393602,1.56384663 114.338396,1.04217163 113.152753,0.686478797 C111.96711,0.330785962 110.710348,0.152942212 109.382428,0.152942212 C107.437973,0.152942212 105.712889,0.502701587 104.207123,1.20223083 C102.701356,1.90176007 101.444594,2.8561882 100.436798,4.06554384 C99.4290012,5.27489948 98.6642731,6.69172135 98.1425902,8.31605197 C97.6209074,9.94038258 97.3600699,11.6773232 97.3600699,13.526926 C97.3600699,15.3765287 97.603123,17.1075412 98.0892366,18.7200154 C98.5753501,20.3324896 99.3045095,21.7315271 100.276737,22.9171699 C101.248964,24.1028126 102.470157,25.0335283 103.940354,25.7093447 C105.410552,26.385161 107.129708,26.7230642 109.097875,26.7230642 C112.346536,26.7230642 114.907486,25.8338454 116.780802,24.0553812 C118.654117,22.2769171 119.756748,19.7871046 120.088728,16.585869 L116.709663,16.585869 C116.638525,17.6292347 116.425112,18.6014472 116.06942,19.5025357 C115.713727,20.4036242 115.221692,21.1802086 114.593302,21.8323121 C113.964911,22.4844157 113.217967,22.9942344 112.352448,23.3617837 C111.486929,23.7293329 110.496932,23.9131048 109.382428,23.9131048 C107.864805,23.9131048 106.560617,23.6285548 105.469826,23.0594463 C104.379035,22.4903377 103.483888,21.7256096 102.784359,20.765239 C102.084829,19.8048683 101.569082,18.6785246 101.237102,17.3861739 C100.905122,16.0938233 100.739135,14.7244264 100.739135,13.2779422 C100.739135,11.9500223 100.905122,10.6695473 101.237102,9.4364788 C101.569082,8.2034103 102.084829,7.10670718 102.784359,6.14633652 C103.483888,5.18596586 104.373107,4.42123774 105.452041,3.8521292 C106.530976,3.28302067 107.829236,2.99847067 109.346859,2.99847067 C111.125323,2.99847067 112.660707,3.44900817 113.953058,4.35009668 C115.245408,5.2511852 116.081274,6.6027977 116.46068,8.40497473 L116.46068,8.40497473 Z M123.361086,0.757617008 L123.361086,26.1539585 L126.38446,26.1539585 L126.38446,15.7677796 C126.38446,14.9378297 126.497095,14.1731015 126.722367,13.4735723 C126.947639,12.774043 127.285542,12.1634462 127.736086,11.6417633 C128.18663,11.1200805 128.749802,10.716968 129.425619,10.4324138 C130.101435,10.1478595 130.901732,10.0055845 131.826533,10.0055845 C132.988463,10.0055845 133.901395,10.3375595 134.565354,11.0015194 C135.229314,11.6654794 135.561289,12.5665544 135.561289,13.7047715 L135.561289,26.1539585 L138.584663,26.1539585 L138.584663,14.0604625 C138.584663,13.0645226 138.483885,12.1575195 138.282326,11.339426 C138.080767,10.5213324 137.731007,9.81588556 137.233037,9.22306416 C136.735067,8.63024277 136.082974,8.16784902 135.276737,7.83586904 C134.470499,7.50388906 133.462718,7.33790156 132.253363,7.33790156 C131.707967,7.33790156 131.144795,7.39718281 130.56383,7.51574709 C129.982865,7.63431137 129.425621,7.81808324 128.892082,8.06706823 C128.358543,8.31605321 127.878365,8.63617196 127.451533,9.02743408 C127.024702,9.4186962 126.692727,9.89887433 126.455598,10.4679829 L126.38446,10.4679829 L126.38446,0.757617008 L123.361086,0.757617008 Z M157.934257,26.1539585 L157.934257,7.76473083 L154.910883,7.76473083 L154.910883,18.1509097 C154.910883,18.9808596 154.798249,19.7455878 154.572976,20.445117 C154.347704,21.1446463 154.009801,21.7552431 153.559257,22.276926 C153.108713,22.7986088 152.545541,23.2017213 151.869724,23.4862755 C151.193908,23.7708298 150.393611,23.9131048 149.46881,23.9131048 C148.30688,23.9131048 147.393949,23.5811298 146.729989,22.9171699 C146.066029,22.2532099 145.734054,21.3521349 145.734054,20.2139178 L145.734054,7.76473083 L142.71068,7.76473083 L142.71068,19.8582268 C142.71068,20.8541667 142.811458,21.7611698 143.013017,22.5792633 C143.214576,23.3973569 143.564336,24.1028037 144.062306,24.6956251 C144.560276,25.2884465 145.212369,25.7449122 146.018607,26.0650357 C146.824844,26.3851593 147.832625,26.5452186 149.04198,26.5452186 C150.393613,26.5452186 151.567382,26.278453 152.563322,25.7449138 C153.559262,25.2113745 154.377343,24.3755089 155.01759,23.2372918 L155.088728,23.2372918 L155.088728,26.1539585 L157.934257,26.1539585 Z M162.060273,7.76473083 L162.060273,26.1539585 L165.083647,26.1539585 L165.083647,15.7677796 C165.083647,14.9378297 165.196282,14.1731015 165.421554,13.4735723 C165.646826,12.774043 165.984729,12.1634462 166.435273,11.6417633 C166.885817,11.1200805 167.448989,10.716968 168.124806,10.4324138 C168.800622,10.1478595 169.600919,10.0055845 170.52572,10.0055845 C171.68765,10.0055845 172.600582,10.3375595 173.264541,11.0015194 C173.928501,11.6654794 174.260476,12.5665544 174.260476,13.7047715 L174.260476,26.1539585 L177.28385,26.1539585 L177.28385,14.0604625 C177.28385,13.0645226 177.183072,12.1575195 176.981513,11.339426 C176.779954,10.5213324 176.430194,9.81588556 175.932224,9.22306416 C175.434254,8.63024277 174.782161,8.16784902 173.975924,7.83586904 C173.169686,7.50388906 172.161905,7.33790156 170.95255,7.33790156 C168.225571,7.33790156 166.233721,8.45238906 164.97694,10.6813975 L164.905802,10.6813975 L164.905802,7.76473083 L162.060273,7.76473083 Z"></path>
            </g>
            <g class="pio-pio" transform="translate(178.000000, 39.000000)" sketch:type="MSShapeGroup">
                <path d="M4.27165528,12.9222512 L4.27165528,3.60314546 L10.8875089,3.60314546 C12.8082503,3.60314546 14.2132159,4.00032984 15.102448,4.7947105 C15.9916801,5.58909117 16.4362894,6.74507554 16.4362894,8.26269831 C16.4362894,9.78032107 15.9916801,10.9422336 15.102448,11.7484707 C14.2132159,12.5547078 12.8082503,12.945964 10.8875089,12.9222512 L4.27165528,12.9222512 Z M0.892590244,0.757617008 L0.892590244,26.1539585 L4.27165528,26.1539585 L4.27165528,15.7677796 L12.0257203,15.7677796 C14.5867087,15.7914925 16.5252056,15.1393987 17.8412691,13.8114788 C19.1573326,12.4835589 19.8153545,10.6339839 19.8153545,8.26269831 C19.8153545,5.89141274 19.1573326,4.04776586 17.8412691,2.73170237 C16.5252056,1.41563888 14.5867087,0.757617008 12.0257203,0.757617008 L0.892590244,0.757617008 Z M26.2177935,4.456804 L26.2177935,0.757617008 L23.1944195,0.757617008 L23.1944195,4.456804 L26.2177935,4.456804 Z M23.1944195,7.76473083 L23.1944195,26.1539585 L26.2177935,26.1539585 L26.2177935,7.76473083 L23.1944195,7.76473083 Z M32.6913707,16.9771292 C32.6913707,15.862625 32.8395739,14.8726281 33.1359846,14.0071089 C33.4323952,13.1415896 33.8414359,12.4124303 34.3631187,11.8196089 C34.8848015,11.2267875 35.4953984,10.77625 36.1949276,10.4679829 C36.8944569,10.1597157 37.6354725,10.0055845 38.4179967,10.0055845 C39.200521,10.0055845 39.9415366,10.1597157 40.6410659,10.4679829 C41.3405951,10.77625 41.951192,11.2267875 42.4728748,11.8196089 C42.9945576,12.4124303 43.4035982,13.1415896 43.7000089,14.0071089 C43.9964196,14.8726281 44.1446228,15.862625 44.1446228,16.9771292 C44.1446228,18.0916334 43.9964196,19.0816303 43.7000089,19.9471495 C43.4035982,20.8126688 42.9945576,21.5359 42.4728748,22.116865 C41.951192,22.6978299 41.3405951,23.1424393 40.6410659,23.4507064 C39.9415366,23.7589736 39.200521,23.9131048 38.4179967,23.9131048 C37.6354725,23.9131048 36.8944569,23.7589736 36.1949276,23.4507064 C35.4953984,23.1424393 34.8848015,22.6978299 34.3631187,22.116865 C33.8414359,21.5359 33.4323952,20.8126688 33.1359846,19.9471495 C32.8395739,19.0816303 32.6913707,18.0916334 32.6913707,16.9771292 L32.6913707,16.9771292 Z M29.4901512,16.9771292 C29.4901512,18.328762 29.6798512,19.5855245 30.0592569,20.7474544 C30.4386626,21.9093843 31.0077626,22.9230937 31.766574,23.7886129 C32.5253854,24.6541322 33.4620291,25.3299384 34.5765333,25.816052 C35.6910376,26.3021655 36.9715126,26.5452186 38.4179967,26.5452186 C39.8881938,26.5452186 41.1745969,26.3021655 42.2772447,25.816052 C43.3798925,25.3299384 44.3106081,24.6541322 45.0694195,23.7886129 C45.8282309,22.9230937 46.3973309,21.9093843 46.7767366,20.7474544 C47.1561423,19.5855245 47.3458423,18.328762 47.3458423,16.9771292 C47.3458423,15.6254964 47.1561423,14.3628058 46.7767366,13.1890194 C46.3973309,12.0152331 45.8282309,10.9955956 45.0694195,10.1300764 C44.3106081,9.26455713 43.3798925,8.58282275 42.2772447,8.08485278 C41.1745969,7.58688281 39.8881938,7.33790156 38.4179967,7.33790156 C36.9715126,7.33790156 35.6910376,7.58688281 34.5765333,8.08485278 C33.4620291,8.58282275 32.5253854,9.26455713 31.766574,10.1300764 C31.0077626,10.9955956 30.4386626,12.0152331 30.0592569,13.1890194 C29.6798512,14.3628058 29.4901512,15.6254964 29.4901512,16.9771292 L29.4901512,16.9771292 Z M49.9779561,14.8429829 L49.9779561,17.6885113 L60.2574276,17.6885113 L60.2574276,14.8429829 L49.9779561,14.8429829 Z M67.7625089,12.9222512 L67.7625089,3.60314546 L74.3783626,3.60314546 C76.2991039,3.60314546 77.7040695,4.00032984 78.5933016,4.7947105 C79.4825337,5.58909117 79.9271431,6.74507554 79.9271431,8.26269831 C79.9271431,9.78032107 79.4825337,10.9422336 78.5933016,11.7484707 C77.7040695,12.5547078 76.2991039,12.945964 74.3783626,12.9222512 L67.7625089,12.9222512 Z M64.3834439,0.757617008 L64.3834439,26.1539585 L67.7625089,26.1539585 L67.7625089,15.7677796 L75.516574,15.7677796 C78.0775624,15.7914925 80.0160593,15.1393987 81.3321228,13.8114788 C82.6481863,12.4835589 83.3062081,10.6339839 83.3062081,8.26269831 C83.3062081,5.89141274 82.6481863,4.04776586 81.3321228,2.73170237 C80.0160593,1.41563888 78.0775624,0.757617008 75.516574,0.757617008 L64.3834439,0.757617008 Z M89.7086472,4.456804 L89.7086472,0.757617008 L86.6852732,0.757617008 L86.6852732,4.456804 L89.7086472,4.456804 Z M86.6852732,7.76473083 L86.6852732,26.1539585 L89.7086472,26.1539585 L89.7086472,7.76473083 L86.6852732,7.76473083 Z M96.1822244,16.9771292 C96.1822244,15.862625 96.3304275,14.8726281 96.6268382,14.0071089 C96.9232489,13.1415896 97.3322895,12.4124303 97.8539724,11.8196089 C98.3756552,11.2267875 98.9862521,10.77625 99.6857813,10.4679829 C100.385311,10.1597157 101.126326,10.0055845 101.90885,10.0055845 C102.691375,10.0055845 103.43239,10.1597157 104.13192,10.4679829 C104.831449,10.77625 105.442046,11.2267875 105.963728,11.8196089 C106.485411,12.4124303 106.894452,13.1415896 107.190863,14.0071089 C107.487273,14.8726281 107.635476,15.862625 107.635476,16.9771292 C107.635476,18.0916334 107.487273,19.0816303 107.190863,19.9471495 C106.894452,20.8126688 106.485411,21.5359 105.963728,22.116865 C105.442046,22.6978299 104.831449,23.1424393 104.13192,23.4507064 C103.43239,23.7589736 102.691375,23.9131048 101.90885,23.9131048 C101.126326,23.9131048 100.385311,23.7589736 99.6857813,23.4507064 C98.9862521,23.1424393 98.3756552,22.6978299 97.8539724,22.116865 C97.3322895,21.5359 96.9232489,20.8126688 96.6268382,19.9471495 C96.3304275,19.0816303 96.1822244,18.0916334 96.1822244,16.9771292 L96.1822244,16.9771292 Z M92.9810049,16.9771292 C92.9810049,18.328762 93.1707049,19.5855245 93.5501106,20.7474544 C93.9295163,21.9093843 94.4986163,22.9230937 95.2574276,23.7886129 C96.016239,24.6541322 96.9528828,25.3299384 98.067387,25.816052 C99.1818912,26.3021655 100.462366,26.5452186 101.90885,26.5452186 C103.379047,26.5452186 104.665451,26.3021655 105.768098,25.816052 C106.870746,25.3299384 107.801462,24.6541322 108.560273,23.7886129 C109.319085,22.9230937 109.888185,21.9093843 110.26759,20.7474544 C110.646996,19.5855245 110.836696,18.328762 110.836696,16.9771292 C110.836696,15.6254964 110.646996,14.3628058 110.26759,13.1890194 C109.888185,12.0152331 109.319085,10.9955956 108.560273,10.1300764 C107.801462,9.26455713 106.870746,8.58282275 105.768098,8.08485278 C104.665451,7.58688281 103.379047,7.33790156 101.90885,7.33790156 C100.462366,7.33790156 99.1818912,7.58688281 98.067387,8.08485278 C96.9528828,8.58282275 96.016239,9.26455713 95.2574276,10.1300764 C94.4986163,10.9955956 93.9295163,12.0152331 93.5501106,13.1890194 C93.1707049,14.3628058 92.9810049,15.6254964 92.9810049,16.9771292 L92.9810049,16.9771292 Z"></path>
            </g>
            <g class="cui-cui" transform="translate(177.000000, 39.000000)" sketch:type="MSShapeGroup">
                <path d="M19.7482813,8.40497473 L23.1273463,8.40497473 C22.9376435,7.05334196 22.534531,5.86178883 21.9179967,4.83027961 C21.3014625,3.79877039 20.5308063,2.93919226 19.6060049,2.25151945 C18.6812035,1.56384663 17.6259973,1.04217163 16.4403545,0.686478797 C15.2547117,0.330785962 13.9979492,0.152942212 12.6700293,0.152942212 C10.7255751,0.152942212 9.00049073,0.502701587 7.49472439,1.20223083 C5.98895805,1.90176007 4.73219555,2.8561882 3.72439919,4.06554384 C2.71660282,5.27489948 1.9518747,6.69172135 1.43019187,8.31605197 C0.908509045,9.94038258 0.647671545,11.6773232 0.647671545,13.526926 C0.647671545,15.3765287 0.89072467,17.1075412 1.37683821,18.7200154 C1.86295175,20.3324896 2.59211113,21.7315271 3.56433821,22.9171699 C4.53656529,24.1028126 5.75775904,25.0335283 7.2279561,25.7093447 C8.69815315,26.385161 10.4173094,26.7230642 12.3854764,26.7230642 C15.6341377,26.7230642 18.1950877,25.8338454 20.0684033,24.0553812 C21.9417189,22.2769171 23.0443501,19.7871046 23.3763301,16.585869 L19.997265,16.585869 C19.9261265,17.6292347 19.712714,18.6014472 19.3570211,19.5025357 C19.0013283,20.4036242 18.5092939,21.1802086 17.8809033,21.8323121 C17.2525126,22.4844157 16.5055688,22.9942344 15.6400496,23.3617837 C14.7745304,23.7293329 13.7845335,23.9131048 12.6700293,23.9131048 C11.1524065,23.9131048 9.848219,23.6285548 8.75742764,23.0594463 C7.66663628,22.4903377 6.77148941,21.7256096 6.07196016,20.765239 C5.37243092,19.8048683 4.85668404,18.6785246 4.52470407,17.3861739 C4.19272409,16.0938233 4.02673659,14.7244264 4.02673659,13.2779422 C4.02673659,11.9500223 4.19272409,10.6695473 4.52470407,9.4364788 C4.85668404,8.2034103 5.37243092,7.10670718 6.07196016,6.14633652 C6.77148941,5.18596586 7.66070816,4.42123774 8.73964309,3.8521292 C9.81857802,3.28302067 11.1168374,2.99847067 12.6344602,2.99847067 C14.4129243,2.99847067 15.9483087,3.44900817 17.2406593,4.35009668 C18.53301,5.2511852 19.3688756,6.6027977 19.7482813,8.40497473 L19.7482813,8.40497473 Z M41.872265,26.1539585 L41.872265,7.76473083 L38.8488911,7.76473083 L38.8488911,18.1509097 C38.8488911,18.9808596 38.7362567,19.7455878 38.5109846,20.445117 C38.2857124,21.1446463 37.9478093,21.7552431 37.497265,22.276926 C37.0467208,22.7986088 36.4835489,23.2017213 35.8077325,23.4862755 C35.1319161,23.7708298 34.3316193,23.9131048 33.4068179,23.9131048 C32.244888,23.9131048 31.3319567,23.5811298 30.6679967,22.9171699 C30.0040368,22.2532099 29.6720618,21.3521349 29.6720618,20.2139178 L29.6720618,7.76473083 L26.6486878,7.76473083 L26.6486878,19.8582268 C26.6486878,20.8541667 26.7494659,21.7611698 26.9510252,22.5792633 C27.1525845,23.3973569 27.5023439,24.1028037 28.0003138,24.6956251 C28.4982838,25.2884465 29.1503775,25.7449122 29.9566146,26.0650357 C30.7628517,26.3851593 31.770633,26.5452186 32.9799886,26.5452186 C34.3316214,26.5452186 35.5053901,26.278453 36.5013301,25.7449138 C37.49727,25.2113745 38.3153513,24.3755089 38.9555984,23.2372918 L39.0267366,23.2372918 L39.0267366,26.1539585 L41.872265,26.1539585 Z M49.1995008,4.456804 L49.1995008,0.757617008 L46.1761268,0.757617008 L46.1761268,4.456804 L49.1995008,4.456804 Z M46.1761268,7.76473083 L46.1761268,26.1539585 L49.1995008,26.1539585 L49.1995008,7.76473083 L46.1761268,7.76473083 Z M52.969826,14.8429829 L52.969826,17.6885113 L63.2492976,17.6885113 L63.2492976,14.8429829 L52.969826,14.8429829 Z M85.2310049,8.40497473 L88.6100699,8.40497473 C88.4203671,7.05334196 88.0172546,5.86178883 87.4007203,4.83027961 C86.7841861,3.79877039 86.0135298,2.93919226 85.0887285,2.25151945 C84.1639271,1.56384663 83.1087208,1.04217163 81.923078,0.686478797 C80.7374353,0.330785962 79.4806728,0.152942212 78.1527528,0.152942212 C76.2082987,0.152942212 74.4832143,0.502701587 72.977448,1.20223083 C71.4716816,1.90176007 70.2149191,2.8561882 69.2071228,4.06554384 C68.1993264,5.27489948 67.4345983,6.69172135 66.9129154,8.31605197 C66.3912326,9.94038258 66.1303951,11.6773232 66.1303951,13.526926 C66.1303951,15.3765287 66.3734482,17.1075412 66.8595618,18.7200154 C67.3456753,20.3324896 68.0748347,21.7315271 69.0470618,22.9171699 C70.0192889,24.1028126 71.2404826,25.0335283 72.7106797,25.7093447 C74.1808767,26.385161 75.900033,26.7230642 77.8682,26.7230642 C81.1168612,26.7230642 83.6778112,25.8338454 85.5511268,24.0553812 C87.4244424,22.2769171 88.5270737,19.7871046 88.8590537,16.585869 L85.4799886,16.585869 C85.4088501,17.6292347 85.1954376,18.6014472 84.8397447,19.5025357 C84.4840519,20.4036242 83.9920175,21.1802086 83.3636268,21.8323121 C82.7352362,22.4844157 81.9882924,22.9942344 81.1227732,23.3617837 C80.2572539,23.7293329 79.2672571,23.9131048 78.1527528,23.9131048 C76.6351301,23.9131048 75.3309426,23.6285548 74.2401512,23.0594463 C73.1493599,22.4903377 72.254213,21.7256096 71.5546837,20.765239 C70.8551545,19.8048683 70.3394076,18.6785246 70.0074276,17.3861739 C69.6754477,16.0938233 69.5094602,14.7244264 69.5094602,13.2779422 C69.5094602,11.9500223 69.6754477,10.6695473 70.0074276,9.4364788 C70.3394076,8.2034103 70.8551545,7.10670718 71.5546837,6.14633652 C72.254213,5.18596586 73.1434317,4.42123774 74.2223667,3.8521292 C75.3013016,3.28302067 76.599561,2.99847067 78.1171837,2.99847067 C79.8956479,2.99847067 81.4310323,3.44900817 82.7233829,4.35009668 C84.0157336,5.2511852 84.8515992,6.6027977 85.2310049,8.40497473 L85.2310049,8.40497473 Z M107.354989,26.1539585 L107.354989,7.76473083 L104.331615,7.76473083 L104.331615,18.1509097 C104.331615,18.9808596 104.21898,19.7455878 103.993708,20.445117 C103.768436,21.1446463 103.430533,21.7552431 102.979989,22.276926 C102.529444,22.7986088 101.966272,23.2017213 101.290456,23.4862755 C100.61464,23.7708298 99.8143428,23.9131048 98.8895415,23.9131048 C97.7276115,23.9131048 96.8146803,23.5811298 96.1507203,22.9171699 C95.4867604,22.2532099 95.1547854,21.3521349 95.1547854,20.2139178 L95.1547854,7.76473083 L92.1314114,7.76473083 L92.1314114,19.8582268 C92.1314114,20.8541667 92.2321895,21.7611698 92.4337488,22.5792633 C92.6353081,23.3973569 92.9850674,24.1028037 93.4830374,24.6956251 C93.9810074,25.2884465 94.6331011,25.7449122 95.4393382,26.0650357 C96.2455753,26.3851593 97.2533566,26.5452186 98.4627122,26.5452186 C99.814345,26.5452186 100.988114,26.278453 101.984054,25.7449138 C102.979994,25.2113745 103.798075,24.3755089 104.438322,23.2372918 L104.50946,23.2372918 L104.50946,26.1539585 L107.354989,26.1539585 Z M114.682224,4.456804 L114.682224,0.757617008 L111.65885,0.757617008 L111.65885,4.456804 L114.682224,4.456804 Z M111.65885,7.76473083 L111.65885,26.1539585 L114.682224,26.1539585 L114.682224,7.76473083 L111.65885,7.76473083 Z"></path>
            </g>
            <g class="tweet" transform="translate(176.000000, 39.000000)" sketch:type="MSShapeGroup">
                <path d="M8.65478537,3.60314546 L8.65478537,26.1539585 L12.0338504,26.1539585 L12.0338504,3.60314546 L20.4992976,3.60314546 L20.4992976,0.757617008 L0.189338211,0.757617008 L0.189338211,3.60314546 L8.65478537,3.60314546 Z M36.6476715,26.1539585 L42.516574,7.76473083 L39.3864927,7.76473083 L35.2604764,22.8104625 L35.1893382,22.8104625 L31.3478748,7.76473083 L28.039948,7.76473083 L24.340761,22.8104625 L24.2696228,22.8104625 L20.1080374,7.76473083 L16.7645415,7.76473083 L22.669013,26.1539585 L25.9413707,26.1539585 L29.6405577,11.535056 L29.7116959,11.535056 L33.446452,26.1539585 L36.6476715,26.1539585 Z M57.7401512,15.1986739 L47.1761268,15.1986739 C47.2235525,14.4872882 47.3776838,13.8174101 47.6385252,13.1890194 C47.8993666,12.5606288 48.2550541,12.0093131 48.7055984,11.535056 C49.1561426,11.0607989 49.695602,10.687327 50.3239927,10.4146292 C50.9523834,10.1419314 51.6578302,10.0055845 52.4403545,10.0055845 C53.1991659,10.0055845 53.8927565,10.1419314 54.5211472,10.4146292 C55.1495378,10.687327 55.6949253,11.0548708 56.157326,11.5172715 C56.6197267,11.9796722 56.9872705,12.5309878 57.2599683,13.1712349 C57.5326661,13.811482 57.6927255,14.4872882 57.7401512,15.1986739 L57.7401512,15.1986739 Z M60.6568179,20.3206251 L57.669013,20.3206251 C57.4081716,21.5299808 56.8687122,22.4310558 56.0506187,23.0238772 C55.2325252,23.6166986 54.1832471,23.9131048 52.9027528,23.9131048 C51.9068129,23.9131048 51.0413067,23.7471173 50.3062081,23.4151373 C49.5711096,23.0831574 48.9664409,22.638548 48.4921837,22.0812959 C48.0179266,21.5240438 47.6740954,20.8838063 47.4606797,20.1605642 C47.247264,19.4373221 47.152414,18.6725939 47.1761268,17.8663568 L60.9413707,17.8663568 C60.9887964,16.7518526 60.8880183,15.5780839 60.6390333,14.3450154 C60.3900483,13.1119469 59.9395108,11.9737469 59.2874073,10.9303812 C58.6353038,9.88701559 57.7697975,9.02743746 56.6908626,8.35162107 C55.6119277,7.67580469 54.254387,7.33790156 52.6182,7.33790156 C51.3614186,7.33790156 50.2054343,7.57502656 49.1502122,8.04928367 C48.0949901,8.52354079 47.1820589,9.18749079 46.4113911,10.0411536 C45.6407232,10.8948164 45.0419826,11.9025976 44.6151512,13.0645276 C44.1883198,14.2264575 43.9749073,15.5069325 43.9749073,16.905991 C44.022333,18.3050495 44.2298174,19.5973807 44.5973667,20.7830235 C44.9649159,21.9686663 45.5162316,22.9883038 46.2513301,23.8419666 C46.9864286,24.6956294 47.8934317,25.3595794 48.9723667,25.8338365 C50.0513016,26.3080936 51.3258485,26.5452186 52.7960455,26.5452186 C54.8827768,26.5452186 56.6137893,26.0235436 57.989135,24.980178 C59.3644806,23.9368123 60.2536993,22.3836436 60.6568179,20.3206251 L60.6568179,20.3206251 Z M76.4139317,15.1986739 L65.8499073,15.1986739 C65.897333,14.4872882 66.0514643,13.8174101 66.3123057,13.1890194 C66.5731471,12.5606288 66.9288346,12.0093131 67.3793789,11.535056 C67.8299231,11.0607989 68.3693825,10.687327 68.9977732,10.4146292 C69.6261638,10.1419314 70.3316107,10.0055845 71.114135,10.0055845 C71.8729463,10.0055845 72.566537,10.1419314 73.1949276,10.4146292 C73.8233183,10.687327 74.3687058,11.0548708 74.8311065,11.5172715 C75.2935072,11.9796722 75.6610509,12.5309878 75.9337488,13.1712349 C76.2064466,13.811482 76.366506,14.4872882 76.4139317,15.1986739 L76.4139317,15.1986739 Z M79.3305984,20.3206251 L76.3427935,20.3206251 C76.0819521,21.5299808 75.5424927,22.4310558 74.7243992,23.0238772 C73.9063057,23.6166986 72.8570275,23.9131048 71.5765333,23.9131048 C70.5805934,23.9131048 69.7150871,23.7471173 68.9799886,23.4151373 C68.2448901,23.0831574 67.6402213,22.638548 67.1659642,22.0812959 C66.6917071,21.5240438 66.3478759,20.8838063 66.1344602,20.1605642 C65.9210445,19.4373221 65.8261945,18.6725939 65.8499073,17.8663568 L79.6151512,17.8663568 C79.6625769,16.7518526 79.5617988,15.5780839 79.3128138,14.3450154 C79.0638288,13.1119469 78.6132913,11.9737469 77.9611878,10.9303812 C77.3090843,9.88701559 76.443578,9.02743746 75.3646431,8.35162107 C74.2857082,7.67580469 72.9281675,7.33790156 71.2919805,7.33790156 C70.0351991,7.33790156 68.8792148,7.57502656 67.8239927,8.04928367 C66.7687706,8.52354079 65.8558394,9.18749079 65.0851715,10.0411536 C64.3145037,10.8948164 63.7157631,11.9025976 63.2889317,13.0645276 C62.8621003,14.2264575 62.6486878,15.5069325 62.6486878,16.905991 C62.6961135,18.3050495 62.9035979,19.5973807 63.2711472,20.7830235 C63.6386964,21.9686663 64.190012,22.9883038 64.9251106,23.8419666 C65.6602091,24.6956294 66.5672122,25.3595794 67.6461472,25.8338365 C68.7250821,26.3080936 69.999629,26.5452186 71.469826,26.5452186 C73.5565573,26.5452186 75.2875698,26.0235436 76.6629154,24.980178 C78.0382611,23.9368123 78.9274798,22.3836436 79.3305984,20.3206251 L79.3305984,20.3206251 Z M86.5155577,7.76473083 L86.5155577,2.25151945 L83.4921837,2.25151945 L83.4921837,7.76473083 L80.3621024,7.76473083 L80.3621024,10.4324138 L83.4921837,10.4324138 L83.4921837,22.1346495 C83.4921837,22.9883123 83.5751775,23.6759748 83.7411675,24.1976577 C83.9071575,24.7193405 84.1620668,25.122453 84.5059033,25.4070073 C84.8497397,25.6915615 85.3002772,25.8871896 85.8575293,25.9938975 C86.4147814,26.1006053 87.0846595,26.1539585 87.8671837,26.1539585 L90.1791756,26.1539585 L90.1791756,23.4862755 L88.7919805,23.4862755 C88.3177234,23.4862755 87.9323952,23.4684912 87.6359846,23.4329219 C87.3395739,23.3973526 87.108377,23.320287 86.942387,23.2017227 C86.776397,23.0831584 86.6637626,22.9171709 86.6044805,22.7037552 C86.5451983,22.4903395 86.5155577,22.2057895 86.5155577,21.8500967 L86.5155577,10.4324138 L90.1791756,10.4324138 L90.1791756,7.76473083 L86.5155577,7.76473083 Z"></path>
            </g>
            <g class="chip" transform="translate(177.000000, 39.000000)" sketch:type="MSShapeGroup">
                <path d="M19.7482813,8.40497473 L23.1273463,8.40497473 C22.9376435,7.05334196 22.534531,5.86178883 21.9179967,4.83027961 C21.3014625,3.79877039 20.5308063,2.93919226 19.6060049,2.25151945 C18.6812035,1.56384663 17.6259973,1.04217163 16.4403545,0.686478797 C15.2547117,0.330785962 13.9979492,0.152942212 12.6700293,0.152942212 C10.7255751,0.152942212 9.00049073,0.502701587 7.49472439,1.20223083 C5.98895805,1.90176007 4.73219555,2.8561882 3.72439919,4.06554384 C2.71660282,5.27489948 1.9518747,6.69172135 1.43019187,8.31605197 C0.908509045,9.94038258 0.647671545,11.6773232 0.647671545,13.526926 C0.647671545,15.3765287 0.89072467,17.1075412 1.37683821,18.7200154 C1.86295175,20.3324896 2.59211113,21.7315271 3.56433821,22.9171699 C4.53656529,24.1028126 5.75775904,25.0335283 7.2279561,25.7093447 C8.69815315,26.385161 10.4173094,26.7230642 12.3854764,26.7230642 C15.6341377,26.7230642 18.1950877,25.8338454 20.0684033,24.0553812 C21.9417189,22.2769171 23.0443501,19.7871046 23.3763301,16.585869 L19.997265,16.585869 C19.9261265,17.6292347 19.712714,18.6014472 19.3570211,19.5025357 C19.0013283,20.4036242 18.5092939,21.1802086 17.8809033,21.8323121 C17.2525126,22.4844157 16.5055688,22.9942344 15.6400496,23.3617837 C14.7745304,23.7293329 13.7845335,23.9131048 12.6700293,23.9131048 C11.1524065,23.9131048 9.848219,23.6285548 8.75742764,23.0594463 C7.66663628,22.4903377 6.77148941,21.7256096 6.07196016,20.765239 C5.37243092,19.8048683 4.85668404,18.6785246 4.52470407,17.3861739 C4.19272409,16.0938233 4.02673659,14.7244264 4.02673659,13.2779422 C4.02673659,11.9500223 4.19272409,10.6695473 4.52470407,9.4364788 C4.85668404,8.2034103 5.37243092,7.10670718 6.07196016,6.14633652 C6.77148941,5.18596586 7.66070816,4.42123774 8.73964309,3.8521292 C9.81857802,3.28302067 11.1168374,2.99847067 12.6344602,2.99847067 C14.4129243,2.99847067 15.9483087,3.44900817 17.2406593,4.35009668 C18.53301,5.2511852 19.3688756,6.6027977 19.7482813,8.40497473 L19.7482813,8.40497473 Z M26.6486878,0.757617008 L26.6486878,26.1539585 L29.6720618,26.1539585 L29.6720618,15.7677796 C29.6720618,14.9378297 29.7846962,14.1731015 30.0099683,13.4735723 C30.2352404,12.774043 30.5731435,12.1634462 31.0236878,11.6417633 C31.4742321,11.1200805 32.0374039,10.716968 32.7132203,10.4324138 C33.3890367,10.1478595 34.1893336,10.0055845 35.114135,10.0055845 C36.2760649,10.0055845 37.1889961,10.3375595 37.8529561,11.0015194 C38.5169161,11.6654794 38.8488911,12.5665544 38.8488911,13.7047715 L38.8488911,26.1539585 L41.872265,26.1539585 L41.872265,14.0604625 C41.872265,13.0645226 41.7714869,12.1575195 41.5699276,11.339426 C41.3683684,10.5213324 41.018609,9.81588556 40.520639,9.22306416 C40.0226691,8.63024277 39.3705753,8.16784902 38.5643382,7.83586904 C37.7581011,7.50388906 36.7503199,7.33790156 35.5409642,7.33790156 C34.9955685,7.33790156 34.4323967,7.39718281 33.8514317,7.51574709 C33.2704667,7.63431137 32.713223,7.81808324 32.1796837,8.06706823 C31.6461445,8.31605321 31.1659664,8.63617196 30.739135,9.02743408 C30.3123036,9.4186962 29.9803286,9.89887433 29.7432,10.4679829 L29.6720618,10.4679829 L29.6720618,0.757617008 L26.6486878,0.757617008 Z M49.1995008,4.456804 L49.1995008,0.757617008 L46.1761268,0.757617008 L46.1761268,4.456804 L49.1995008,4.456804 Z M46.1761268,7.76473083 L46.1761268,26.1539585 L49.1995008,26.1539585 L49.1995008,7.76473083 L46.1761268,7.76473083 Z M53.5745008,7.76473083 L53.5745008,33.1610723 L56.5978748,33.1610723 L56.5978748,23.6996902 L56.669013,23.6996902 C57.000993,24.2450859 57.4100336,24.7015515 57.8961472,25.0691007 C58.3822607,25.43665 58.8980076,25.7271281 59.4434033,25.9405438 C59.9887989,26.1539595 60.5401146,26.3080908 61.0973667,26.4029422 C61.6546188,26.4977936 62.1585094,26.5452186 62.6090537,26.5452186 C64.0081121,26.5452186 65.235234,26.2962374 66.2904561,25.7982674 C67.3456782,25.3002974 68.2230407,24.6185631 68.9225699,23.7530438 C69.6220992,22.8875246 70.1437742,21.8738152 70.4876106,20.7118853 C70.831447,19.5499554 71.0033626,18.3169054 71.0033626,17.0126983 C71.0033626,15.7084912 70.8255189,14.4754412 70.469826,13.3135113 C70.1141332,12.1515814 69.5865301,11.1260158 68.8870008,10.2367837 C68.1874716,9.34755159 67.3101091,8.64210471 66.254887,8.12042189 C65.1996649,7.59873906 63.9606868,7.33790156 62.5379154,7.33790156 C61.2574212,7.33790156 60.0836525,7.56909844 59.016574,8.03149912 C57.9494955,8.49389981 57.166983,9.23491543 56.669013,10.2545682 L56.5978748,10.2545682 L56.5978748,7.76473083 L53.5745008,7.76473083 Z M67.8021431,16.7992837 C67.8021431,17.7003722 67.7072931,18.5777347 67.5175902,19.4313975 C67.3278874,20.2850603 67.0196249,21.0438603 66.5927935,21.7078203 C66.1659621,22.3717802 65.6027902,22.9053115 64.903261,23.30843 C64.2037317,23.7115486 63.3322974,23.9131048 62.2889317,23.9131048 C61.2455661,23.9131048 60.3563473,23.7174767 59.6212488,23.3262146 C58.8861503,22.9349525 58.2874096,22.4192056 57.8250089,21.7789585 C57.3626083,21.1387114 57.0247051,20.3976957 56.8112894,19.5558894 C56.5978737,18.714083 56.4911675,17.8426486 56.4911675,16.9415601 C56.4911675,16.0878973 56.5919456,15.2461035 56.7935049,14.4161536 C56.9950642,13.5862036 57.321111,12.845188 57.7716553,12.1930845 C58.2221995,11.540981 58.8031558,11.0133778 59.5145415,10.6102593 C60.2259271,10.2071407 61.0914334,10.0055845 62.1110862,10.0055845 C63.0833133,10.0055845 63.9310351,10.1952845 64.6542772,10.5746902 C65.3775193,10.9540959 65.9703318,11.4639146 66.4327325,12.1041617 C66.8951332,12.7444088 67.2389645,13.4735682 67.4642366,14.2916617 C67.6895087,15.1097552 67.8021431,15.9456209 67.8021431,16.7992837 L67.8021431,16.7992837 Z"></path>
            </g>
        </g>
    </g>
</svg>