<?xml version="1.0" encoding="UTF-8" standalone="no"?>
<svg width="354px" height="159px" viewBox="0 0 354 159" version="1.1" xmlns="http://www.w3.org/2000/svg" xmlns:xlink="http://www.w3.org/1999/xlink" xmlns:sketch="http://www.bohemiancoding.com/sketch/ns">
    <!-- Generator: Sketch 3.3.3 (12081) - http://www.bohemiancoding.com/sketch -->
    <title>logo</title>
    <desc>Created with Sketch.</desc>
    <defs></defs>
    <g id="Page-1" stroke="none" stroke-width="1" fill="none" fill-rule="evenodd" sketch:type="MSPage">
        <g id="logo" sketch:type="MSLayerGroup" fill="#00B0FF">
            <g id="pennuto" sketch:type="MSShapeGroup">
                <path d="M145.3945,62.7065 L154.6145,53.4565 L144.6975,53.4675 L144.3485,52.2955 C137.9095,30.8035 119.9345,23.1775 106.4995,23.1775 C106.0085,23.1775 105.5215,23.1865 105.0325,23.2045 C92.1155,23.7035 75.1765,31.5535 69.9485,52.0385 L69.6365,53.2735 L44.2865,53.2735 L44.2865,39.0605 L45.7635,38.9135 C59.3925,37.5665 75.3595,30.9375 75.5075,16.6885 C75.4375,12.5035 73.8945,8.6985 71.0445,5.6975 C68.9495,3.6745 65.4195,1.2485 60.5865,1.2485 L60.3395,1.2505 C51.7115,1.2505 48.3595,6.0365 45.4845,14.3035 C43.8125,19.0875 41.8265,21.4125 39.4125,21.4125 C36.9505,21.4125 34.9775,19.0105 33.3775,14.0705 C30.6995,5.7785 27.4335,0.9675 18.6665,0.9125 L18.2315,0.9055 C14.4585,0.9055 10.7055,2.4935 7.6705,5.3755 C4.7945,8.2095 3.1515,12.1955 3.1685,16.3045 C3.0415,30.5335 18.9315,37.3375 32.5785,38.8415 L34.0395,39.0015 L34.0395,53.2735 L0.8255,53.2735 L0.8255,66.0645 C1.1235,84.7255 8.6705,102.3715 22.0765,115.7475 C34.0865,127.7295 49.2495,135.0185 65.9265,136.8235 L66.8875,136.9265 L70.7215,149.8025 L58.5095,149.8025 L58.5095,158.3575 L102.5665,158.3575 L102.5665,149.8025 L79.9975,149.8025 L76.2985,137.2455 L78.6025,137.1025 C97.6955,135.8975 115.9985,127.2405 128.8195,113.3495 C139.2135,102.0845 145.2965,88.2925 146.4075,73.4645 L146.5235,71.9465 L154.6145,71.9475 L145.3945,62.7065 Z M26.6925,16.4765 C26.6655,18.6515 25.7675,20.7205 24.2275,22.1535 C22.8205,23.5975 20.7695,24.4335 18.6155,24.4335 C16.4005,24.4335 14.2925,23.5365 12.8335,21.9725 C11.3425,20.3735 10.5395,18.3085 10.5725,16.1565 C10.6055,13.9985 11.4735,12.0165 13.0185,10.5765 C14.4275,9.1325 16.4785,8.2975 18.6325,8.2975 C20.8465,8.2975 22.9545,9.1945 24.4135,10.7585 C25.8845,12.1965 26.7195,14.2855 26.6925,16.4765 L26.6925,16.4765 Z M52.1755,16.5975 C52.1995,14.4195 53.0955,12.3465 54.6355,10.9095 C56.0925,9.4165 58.0595,8.5865 60.1595,8.5865 C62.2665,8.5865 64.2755,9.4485 65.8185,11.0125 C68.7865,14.1995 68.7335,19.3005 65.7115,22.3905 C64.1305,23.8665 62.0365,24.7055 59.9525,24.7055 C57.7655,24.7055 55.8025,23.8405 54.4255,22.2695 C52.9785,20.8645 52.1515,18.7885 52.1755,16.5975 Z M121.2905,106.4005 C109.2445,119.4615 92.0185,126.9785 74.0315,127.0225 L73.8785,127.0225 C57.1145,127.0225 41.2875,120.4435 29.3145,108.4975 C17.5735,96.7845 11.0915,81.3415 11.0615,65.0125 L11.0585,63.3685 L78.6755,63.3575 C79.3195,43.3835 92.5325,33.9385 105.4265,33.4425 C119.3185,32.9035 134.4985,42.3625 136.1825,64.1845 C137.3945,79.6865 132.1055,94.6795 121.2905,106.4005 Z M107.1597,54.7378 C102.4397,54.7378 98.6007,58.6868 98.6007,63.5418 C98.6007,68.3968 102.4397,72.3468 107.1597,72.3468 C112.2347,72.3468 116.2107,68.4798 116.2107,63.5418 C116.2107,58.6048 112.2347,54.7378 107.1597,54.7378 Z" id="Fill-3"></path>
            </g>
            <text id="Csirip" sketch:type="MSTextLayer" font-family=".Helvetica Neue DeskInterface" font-size="35" font-weight="normal">
                <tspan x="176.1182" y="65.1539585">Csirip</tspan>
            </text>
            <text id="Cvrkut" sketch:type="MSTextLayer" font-family=".Helvetica Neue DeskInterface" font-size="35" font-weight="normal">
                <tspan x="176.1182" y="65.1539585">Cvrkut</tspan>
            </text>
            <text id="Tschiwitt" sketch:type="MSTextLayer" font-family=".Helvetica Neue DeskInterface" font-size="35" font-weight="normal">
                <tspan x="176.1182" y="65.1539585">Tschiwitt</tspan>
            </text>
            <text id="Fiyt-Fiyt" sketch:type="MSTextLayer" font-family=".Helvetica Neue DeskInterface" font-size="35" font-weight="normal">
                <tspan x="176.1182" y="65.1539585">Fiyt-Fiyt</tspan>
            </text>
            <text id="Tsiou-Tsiou" sketch:type="MSTextLayer" font-family=".Helvetica Neue DeskInterface" font-size="35" font-weight="normal">
                <tspan x="176.1182" y="65.1539585">Tsiou-Tsiou</tspan>
            </text>
            <text id="Jiyk-Jiyk" sketch:type="MSTextLayer" font-family=".Helvetica Neue DeskInterface" font-size="35" font-weight="normal">
                <tspan x="176.1182" y="65.1539585">Jiyk-Jiyk</tspan>
            </text>
            <text id="Tjiep" sketch:type="MSTextLayer" font-family=".Helvetica Neue DeskInterface" font-size="35" font-weight="normal">
                <tspan x="176.1182" y="65.1539585">Tjiep</tspan>
            </text>
            <text id="Pip-Pip" sketch:type="MSTextLayer" font-family=".Helvetica Neue DeskInterface" font-size="35" font-weight="normal">
                <tspan x="176.1182" y="65.1539585">Pip-Pip</tspan>
            </text>
            <text id="Chun-Chun" sketch:type="MSTextLayer" font-family=".Helvetica Neue DeskInterface" font-size="35" font-weight="normal">
                <tspan x="176.1182" y="65.1539585">Chun-Chun</tspan>
            </text>
            <text id="Pio-Pio" sketch:type="MSTextLayer" font-family=".Helvetica Neue DeskInterface" font-size="35" font-weight="normal">
                <tspan x="176.1182" y="65.1539585">Pio-Pio</tspan>
            </text>
            <text id="Cui-Cui" sketch:type="MSTextLayer" font-family=".Helvetica Neue DeskInterface" font-size="35" font-weight="normal">
                <tspan x="176.1182" y="65.1539585">Cui-Cui</tspan>
            </text>
            <text id="Tweet" sketch:type="MSTextLayer" font-family=".Helvetica Neue DeskInterface" font-size="35" font-weight="normal">
                <tspan x="176.1182" y="65.1539585">Tweet</tspan>
            </text>
            <text id="Chip" sketch:type="MSTextLayer" font-family=".Helvetica Neue DeskInterface" font-size="35" font-weight="normal">
                <tspan x="176.1182" y="65.1539585">Chip</tspan>
            </text>
        </g>
    </g>
</svg>