<?xml version="1.0" encoding="UTF-8" standalone="no"?>
<svg width="117px" height="120px" viewBox="0 0 117 120" version="1.1" xmlns="http://www.w3.org/2000/svg" xmlns:xlink="http://www.w3.org/1999/xlink" xmlns:sketch="http://www.bohemiancoding.com/sketch/ns">
    <!-- Generator: Sketch 3.3.2 (12043) - http://www.bohemiancoding.com/sketch -->
    <title>pennuto</title>
    <desc>Created with Sketch.</desc>
    <defs></defs>
    <g id="Page-1" stroke="none" stroke-width="1" fill="none" fill-rule="evenodd" sketch:type="MSPage">
        <g id="marchioblu" sketch:type="MSLayerGroup" transform="translate(-63.000000, 0.000000)" fill="#0B1F2C">
            <path d="M172.7002,47.5342 L179.6572,40.5552 L172.1742,40.5632 L171.9112,39.6792 C167.0522,23.4632 153.4902,17.7082 143.3522,17.7082 C142.9822,17.7082 142.6152,17.7152 142.2462,17.7292 C132.5002,18.1052 119.7192,24.0292 115.7742,39.4852 L115.5392,40.4172 L96.4112,40.4172 L96.4112,29.6932 L97.5262,29.5812 C107.8092,28.5652 119.8572,23.5632 119.9682,12.8122 C119.9162,9.6542 118.7512,6.7842 116.6012,4.5192 C115.0202,2.9932 112.3572,1.1622 108.7102,1.1622 L108.5242,1.1642 C102.0142,1.1642 99.4852,4.7752 97.3152,11.0132 C96.0542,14.6222 94.5552,16.3772 92.7342,16.3772 C90.8772,16.3772 89.3872,14.5642 88.1812,10.8372 C86.1592,4.5802 83.6952,0.9512 77.0802,0.9092 L76.7522,0.9042 C73.9062,0.9042 71.0742,2.1022 68.7842,4.2762 C66.6132,6.4152 65.3742,9.4222 65.3872,12.5222 C65.2912,23.2592 77.2812,28.3922 87.5782,29.5272 L88.6802,29.6482 L88.6802,40.4172 L63.6192,40.4172 L63.6192,50.0682 C63.8442,64.1482 69.5392,77.4632 79.6532,87.5552 C88.7152,96.5962 100.1562,102.0952 112.7392,103.4572 L113.4652,103.5352 L116.3572,113.2502 L107.1432,113.2502 L107.1432,119.7052 L140.3852,119.7052 L140.3852,113.2502 L123.3562,113.2502 L120.5652,103.7762 L122.3042,103.6682 C136.7102,102.7592 150.5202,96.2272 160.1942,85.7462 C168.0372,77.2452 172.6262,66.8392 173.4652,55.6512 L173.5522,54.5052 L179.6572,54.5062 L172.7002,47.5342 Z M83.1362,12.6522 C83.1162,14.2932 82.4382,15.8542 81.2772,16.9362 C80.2152,18.0252 78.6672,18.6562 77.0422,18.6562 C75.3712,18.6562 73.7802,17.9792 72.6792,16.7992 C71.5552,15.5932 70.9492,14.0342 70.9732,12.4112 C70.9982,10.7822 71.6532,9.2872 72.8192,8.2002 C73.8822,7.1112 75.4302,6.4812 77.0542,6.4812 C78.7262,6.4812 80.3162,7.1582 81.4172,8.3382 C82.5262,9.4232 83.1572,10.9992 83.1362,12.6522 L83.1362,12.6522 Z M102.3642,12.7442 C102.3822,11.1012 103.0582,9.5362 104.2202,8.4522 C105.3202,7.3252 106.8042,6.6992 108.3882,6.6992 C109.9782,6.6992 111.4942,7.3492 112.6582,8.5302 C114.8972,10.9342 114.8572,14.7832 112.5772,17.1152 C111.3842,18.2282 109.8042,18.8622 108.2322,18.8622 C106.5822,18.8622 105.1012,18.2092 104.0612,17.0232 C102.9702,15.9632 102.3452,14.3972 102.3642,12.7442 L102.3642,12.7442 Z M154.5132,80.5022 C145.4242,90.3572 132.4272,96.0292 118.8552,96.0622 L118.7402,96.0622 C106.0902,96.0622 94.1492,91.0982 85.1142,82.0842 C76.2562,73.2472 71.3652,61.5952 71.3422,49.2742 L71.3402,48.0332 L122.3592,48.0252 C122.8452,32.9542 132.8142,25.8282 142.5432,25.4542 C153.0252,25.0472 164.4792,32.1842 165.7502,48.6492 C166.6642,60.3462 162.6732,71.6592 154.5132,80.5022 Z M143.851,41.5216 C140.29,41.5216 137.393,44.5016 137.393,48.1646 C137.393,51.8276 140.29,54.8076 143.851,54.8076 C147.68,54.8076 150.68,51.8896 150.68,48.1646 C150.68,44.4396 147.68,41.5216 143.851,41.5216 Z" id="pennuto" sketch:type="MSShapeGroup"></path>
        </g>
    </g>
</svg>