<?xml version="1.0" encoding="UTF-8" standalone="no"?>
<svg width="238px" height="186px" viewBox="0 0 238 186" version="1.1" xmlns="http://www.w3.org/2000/svg" xmlns:xlink="http://www.w3.org/1999/xlink" xmlns:sketch="http://www.bohemiancoding.com/sketch/ns">
    <!-- Generator: Sketch 3.3.2 (12043) - http://www.bohemiancoding.com/sketch -->
    <title>marchio</title>
    <desc>Created with Sketch.</desc>
    <defs></defs>
    <g id="Page-1" stroke="none" stroke-width="1" fill="none" fill-rule="evenodd" sketch:type="MSPage">
        <g id="marchio" sketch:type="MSLayerGroup" fill="#FFCE00">
            <path d="M9.7828,161.2751 L9.7828,175.6391 L15.0498,175.6391 L15.0498,161.2751 L24.6258,142.1231 L19.0238,142.1231 L12.4158,156.0561 L5.8088,142.1231 L0.2068,142.1231 L9.7828,161.2751 Z M35.2548,155.5291 C38.6538,155.5291 40.6648,157.7801 41.0958,160.7961 L29.3658,160.7961 C29.9398,157.6841 32.0468,155.5291 35.2548,155.5291 L35.2548,155.5291 Z M46.3628,162.8071 C46.3628,157.3971 42.9638,151.1241 35.2548,151.1241 C27.3068,151.1241 24.0028,157.8281 24.0028,163.5731 C24.0028,169.3191 27.3068,176.0221 35.2548,176.0221 C40.5698,176.0221 43.3948,173.9631 45.8358,169.2231 L41.5748,167.5471 C40.3778,170.0851 37.9358,171.6171 35.2548,171.6171 C31.4718,171.6171 29.2698,168.7441 29.2698,164.9621 L46.3628,164.9621 L46.3628,162.8071 Z M52.2518,175.6391 L57.2318,175.6391 L57.2318,141.7401 L52.2518,141.7401 L52.2518,175.6391 Z M64.7008,175.6391 L69.6808,175.6391 L69.6808,141.7401 L64.7008,141.7401 L64.7008,175.6391 Z M79.0168,172.4311 C81.1718,174.8251 84.0918,176.0221 87.6828,176.0221 C91.2738,176.0221 94.1468,174.8251 96.3018,172.4311 C98.4558,170.0371 99.5578,167.0681 99.5578,163.5731 C99.5578,160.0781 98.4558,157.1091 96.3018,154.7151 C94.1468,152.3211 91.2738,151.1241 87.6828,151.1241 C84.0918,151.1241 81.1718,152.3211 79.0168,154.7151 C76.8628,157.1091 75.8088,160.0781 75.8088,163.5731 C75.8088,167.0681 76.8628,170.0371 79.0168,172.4311 L79.0168,172.4311 Z M82.7998,157.9231 C83.9968,156.3431 85.6248,155.5291 87.6828,155.5291 C89.7418,155.5291 91.3698,156.3431 92.5188,157.9231 C93.7158,159.5031 94.2908,161.3711 94.2908,163.5731 C94.2908,165.7761 93.7158,167.6911 92.5188,169.2711 C91.3698,170.8511 89.7418,171.6171 87.6828,171.6171 C85.6248,171.6171 83.9968,170.8511 82.7998,169.2711 C81.6508,167.6911 81.0758,165.7761 81.0758,163.5731 C81.0758,161.3711 81.6508,159.5031 82.7998,157.9231 L82.7998,157.9231 Z M125.3648,169.1271 L121.1028,151.5071 L116.3148,151.5071 L112.0538,169.1271 L107.4098,151.5071 L102.1428,151.5071 L109.8038,175.6391 L114.3518,175.6391 L118.7088,158.5941 L123.0668,175.6391 L127.6148,175.6391 L135.2758,151.5071 L130.0088,151.5071 L125.3648,169.1271 Z M169.2228,151.8911 C167.4988,145.4271 162.7108,141.7401 155.6728,141.7401 C151.3638,141.7401 147.6768,143.2721 144.6598,146.2891 C141.6438,149.3051 140.1598,153.4711 140.1598,158.8811 C140.1598,164.2911 141.6438,168.5051 144.6598,171.5211 C147.6768,174.5381 151.3638,176.0221 155.6728,176.0221 C162.7108,176.0221 167.4988,172.3351 169.2228,165.8711 L164.2428,164.6271 C162.5198,169.0321 160.0778,171.0431 155.6728,171.0431 C149.7358,171.0431 145.5218,166.7331 145.5218,158.8811 C145.5218,151.0291 149.7358,146.7191 155.6728,146.7191 C160.0778,146.7191 162.5198,148.7301 164.2428,153.1351 L169.2228,151.8911 Z M174.9198,175.6391 L179.8998,175.6391 L179.8998,165.4411 C179.8998,162.4721 180.6178,160.0781 182.0058,158.2591 C183.3948,156.4391 184.8788,155.5291 186.4108,155.5291 C188.9008,155.5291 190.1938,156.4871 190.1938,159.9341 L190.1938,175.6391 L195.1728,175.6391 L195.1728,158.6421 C195.1728,153.6141 192.5878,151.1241 188.0388,151.1241 C184.6878,151.1241 181.9588,152.6091 179.8998,155.6251 L179.8998,141.7401 L174.9198,141.7401 L174.9198,175.6391 Z M202.5478,147.1501 C203.8878,148.4431 206.1858,148.4431 207.4788,147.1501 C208.8198,145.8101 208.8198,143.6071 207.4788,142.2671 C206.1388,140.8781 203.9358,140.8781 202.5948,142.2671 C201.2548,143.6071 201.2548,145.8101 202.5478,147.1501 L202.5478,147.1501 Z M202.5478,175.6391 L207.5278,175.6391 L207.5278,151.5071 L202.5478,151.5071 L202.5478,175.6391 Z M237.0688,163.5731 C237.0688,155.7211 233.3338,151.1241 226.2958,151.1241 C223.3748,151.1241 220.6458,152.7041 219.7358,154.2841 L219.7358,151.5071 L214.7568,151.5071 L214.7568,185.4071 L219.7358,185.4071 L219.7358,172.9581 C220.9328,174.6811 223.3748,176.0221 226.1998,176.0221 C233.2858,176.0221 237.0688,171.2341 237.0688,163.5731 L237.0688,163.5731 Z M230.0788,169.4621 C228.9288,170.8991 227.4448,171.6171 225.6258,171.6171 C223.8058,171.6171 222.3218,170.8991 221.1728,169.4621 C220.0238,167.9781 219.4488,166.0151 219.4488,163.5731 C219.4488,161.1311 220.0238,159.1681 221.1728,157.7321 C222.3218,156.2481 223.8058,155.5291 225.6258,155.5291 C227.4448,155.5291 228.9288,156.2481 230.0788,157.7321 C231.2278,159.1681 231.8018,161.1311 231.8018,163.5731 C231.8018,166.0151 231.2278,167.9781 230.0788,169.4621 L230.0788,169.4621 Z" id="yc" sketch:type="MSShapeGroup"></path>
            <path d="M172.7002,47.5342 L179.6572,40.5552 L172.1742,40.5632 L171.9112,39.6792 C167.0522,23.4632 153.4902,17.7082 143.3522,17.7082 C142.9822,17.7082 142.6152,17.7152 142.2462,17.7292 C132.5002,18.1052 119.7192,24.0292 115.7742,39.4852 L115.5392,40.4172 L96.4112,40.4172 L96.4112,29.6932 L97.5262,29.5812 C107.8092,28.5652 119.8572,23.5632 119.9682,12.8122 C119.9162,9.6542 118.7512,6.7842 116.6012,4.5192 C115.0202,2.9932 112.3572,1.1622 108.7102,1.1622 L108.5242,1.1642 C102.0142,1.1642 99.4852,4.7752 97.3152,11.0132 C96.0542,14.6222 94.5552,16.3772 92.7342,16.3772 C90.8772,16.3772 89.3872,14.5642 88.1812,10.8372 C86.1592,4.5802 83.6952,0.9512 77.0802,0.9092 L76.7522,0.9042 C73.9062,0.9042 71.0742,2.1022 68.7842,4.2762 C66.6132,6.4152 65.3742,9.4222 65.3872,12.5222 C65.2912,23.2592 77.2812,28.3922 87.5782,29.5272 L88.6802,29.6482 L88.6802,40.4172 L63.6192,40.4172 L63.6192,50.0682 C63.8442,64.1482 69.5392,77.4632 79.6532,87.5552 C88.7152,96.5962 100.1562,102.0952 112.7392,103.4572 L113.4652,103.5352 L116.3572,113.2502 L107.1432,113.2502 L107.1432,119.7052 L140.3852,119.7052 L140.3852,113.2502 L123.3562,113.2502 L120.5652,103.7762 L122.3042,103.6682 C136.7102,102.7592 150.5202,96.2272 160.1942,85.7462 C168.0372,77.2452 172.6262,66.8392 173.4652,55.6512 L173.5522,54.5052 L179.6572,54.5062 L172.7002,47.5342 Z M83.1362,12.6522 C83.1162,14.2932 82.4382,15.8542 81.2772,16.9362 C80.2152,18.0252 78.6672,18.6562 77.0422,18.6562 C75.3712,18.6562 73.7802,17.9792 72.6792,16.7992 C71.5552,15.5932 70.9492,14.0342 70.9732,12.4112 C70.9982,10.7822 71.6532,9.2872 72.8192,8.2002 C73.8822,7.1112 75.4302,6.4812 77.0542,6.4812 C78.7262,6.4812 80.3162,7.1582 81.4172,8.3382 C82.5262,9.4232 83.1572,10.9992 83.1362,12.6522 L83.1362,12.6522 Z M102.3642,12.7442 C102.3822,11.1012 103.0582,9.5362 104.2202,8.4522 C105.3202,7.3252 106.8042,6.6992 108.3882,6.6992 C109.9782,6.6992 111.4942,7.3492 112.6582,8.5302 C114.8972,10.9342 114.8572,14.7832 112.5772,17.1152 C111.3842,18.2282 109.8042,18.8622 108.2322,18.8622 C106.5822,18.8622 105.1012,18.2092 104.0612,17.0232 C102.9702,15.9632 102.3452,14.3972 102.3642,12.7442 L102.3642,12.7442 Z M154.5132,80.5022 C145.4242,90.3572 132.4272,96.0292 118.8552,96.0622 L118.7402,96.0622 C106.0902,96.0622 94.1492,91.0982 85.1142,82.0842 C76.2562,73.2472 71.3652,61.5952 71.3422,49.2742 L71.3402,48.0332 L122.3592,48.0252 C122.8452,32.9542 132.8142,25.8282 142.5432,25.4542 C153.0252,25.0472 164.4792,32.1842 165.7502,48.6492 C166.6642,60.3462 162.6732,71.6592 154.5132,80.5022 Z M143.851,41.5216 C140.29,41.5216 137.393,44.5016 137.393,48.1646 C137.393,51.8276 140.29,54.8076 143.851,54.8076 C147.68,54.8076 150.68,51.8896 150.68,48.1646 C150.68,44.4396 147.68,41.5216 143.851,41.5216 Z" id="pennuto" sketch:type="MSShapeGroup"></path>
        </g>
    </g>
</svg>